ply
format ascii 1.0
comment generated by downsample_and_prepare_room.mjs
element vertex 1032
property float x
property float y
property float z
property uchar red
property uchar green
property uchar blue
end_header
2.475724 4.157662 0.835168 81 85 75
2.468720 4.159063 0.720594 86 86 85
2.620697 3.860379 0.903992 150 177 222
2.620697 3.860379 0.903992 150 177 222
2.682280 3.789386 0.869143 152 176 224
2.620697 3.860379 0.903992 150 177 222
2.620697 3.860379 0.903992 150 177 222
2.620697 3.860379 0.903992 150 177 222
2.495475 3.963744 0.849344 148 168 210
2.620697 3.860379 0.903992 150 177 222
2.530146 4.119088 0.828643 80 79 82
2.484466 3.952207 0.769530 142 162 206
2.620697 3.860379 0.903992 150 177 222
2.620697 3.860379 0.903992 150 177 222
2.520863 3.928005 0.789257 146 168 214
2.582417 4.077116 0.886737 82 87 93
2.620697 3.860379 0.903992 150 177 222
2.620697 3.860379 0.903992 150 177 222
2.494083 3.957391 0.829639 145 169 210
2.534618 4.116422 0.825227 84 84 85
2.504169 4.145638 0.858167 96 99 102
2.371467 4.048822 0.682983 2 36 88
2.586519 3.868844 0.794511 150 175 223
2.380462 4.063319 0.705810 2 31 90
2.493131 3.970570 0.874744 145 165 208
2.490490 4.165537 0.809536 90 92 91
2.620697 3.860379 0.903992 150 177 222
2.524861 4.157149 0.738137 101 105 109
2.620697 3.860379 0.903992 150 177 222
2.400703 4.017446 0.684319 2 17 89
2.620697 3.860379 0.903992 150 177 222
2.558695 3.919320 0.880568 147 170 220
2.489763 3.973746 0.865391 145 166 209
2.620697 3.860379 0.903992 150 177 222
2.433804 4.146300 0.861065 8 15 8
2.620697 3.860379 0.903992 150 177 222
2.464216 3.983996 0.852007 146 164 210
2.508328 3.944011 0.809127 144 168 210
2.620697 3.860379 0.903992 150 177 222
2.417404 4.048927 0.788203 76 76 148
2.620697 3.860379 0.903992 150 177 222
2.405220 4.054333 0.740699 1 24 82
2.543346 4.119886 0.746494 82 84 83
2.620697 3.860379 0.903992 150 177 222
2.620697 3.860379 0.903992 150 177 222
2.461182 3.988444 0.859620 146 164 210
2.620697 3.860379 0.903992 150 177 222
2.562599 4.086352 0.880757 85 90 89
2.494735 4.173317 0.705509 91 89 90
2.371161 4.079619 0.691915 36 17 19
2.407452 4.068703 0.791557 1 22 81
2.620697 3.860379 0.903992 150 177 222
2.476712 3.972021 0.840135 145 165 210
2.620697 3.860379 0.903992 150 177 222
2.389608 4.078866 0.744997 1 24 88
2.590601 3.869973 0.797387 150 175 223
2.620697 3.860379 0.903992 150 177 222
2.430040 4.123632 0.720037 9 4 2
2.502791 4.144763 0.855048 96 100 102
2.620697 3.860379 0.903992 150 177 222
2.529011 4.121649 0.825377 86 86 87
2.470617 4.157901 0.784555 85 92 90
2.430907 4.011863 0.859996 142 165 211
2.527906 4.139925 0.706117 95 96 101
2.636307 3.832862 0.840984 150 175 225
2.620697 3.860379 0.903992 150 177 222
2.620697 3.860379 0.903992 150 177 222
2.485293 4.158269 0.835570 91 94 93
2.466060 4.156498 0.736467 79 81 82
2.515504 4.138491 0.809337 97 102 105
2.620697 3.860379 0.903992 150 177 222
2.458990 3.972683 0.801130 146 164 209
2.527686 4.144570 0.709141 89 86 97
2.450474 3.987765 0.823213 138 163 207
2.620697 3.860379 0.903992 150 177 222
2.620697 3.860379 0.903992 150 177 222
2.407880 4.117290 0.705614 4 1 1
2.620697 3.860379 0.903992 150 177 222
2.493875 3.948755 0.799372 144 167 209
2.533431 4.113782 0.836415 84 90 90
2.519755 4.160621 0.740520 100 104 102
2.620697 3.860379 0.903992 150 177 222
2.408542 4.031970 0.792038 59 49 124
2.543251 3.955480 0.975651 148 173 216
2.620697 3.860379 0.903992 150 177 222
2.592328 4.088933 0.774323 84 90 92
2.499659 4.169531 0.705212 87 93 97
2.450150 3.994980 0.859468 145 163 209
2.620697 3.860379 0.903992 150 177 222
2.620697 3.860379 0.903992 150 177 222
2.620697 3.860379 0.903992 150 177 222
2.523132 4.117844 0.870589 85 86 91
2.620697 3.860379 0.903992 150 177 222
2.620697 3.860379 0.903992 150 177 222
2.415181 4.047577 0.812632 89 87 172
2.431107 4.123954 0.683097 76 64 37
2.620697 3.860379 0.903992 150 177 222
2.439660 4.146500 0.810049 69 80 72
2.500012 4.153131 0.829259 92 95 98
2.620697 3.860379 0.903992 150 177 222
2.441473 4.141490 0.780986 87 91 89
2.499342 4.136422 0.880632 97 100 98
2.620697 3.860379 0.903992 150 177 222
2.620697 3.860379 0.903992 150 177 222
2.415084 4.067521 0.805566 1 18 75
2.410034 4.020138 0.789205 136 165 222
2.602756 4.071702 0.794243 83 92 95
2.602264 4.072225 0.789764 84 91 94
2.434512 4.140749 0.800320 87 91 90
2.620697 3.860379 0.903992 150 177 222
2.620697 3.860379 0.903992 150 177 222
2.620697 3.860379 0.903992 150 177 222
2.620697 3.860379 0.903992 150 177 222
2.620697 3.860379 0.903992 150 177 222
2.620697 3.860379 0.903992 150 177 222
2.620697 3.860379 0.903992 150 177 222
2.389420 4.073167 0.739586 1 20 96
2.620697 3.860379 0.903992 150 177 222
2.499091 3.955418 0.826026 143 167 208
2.620697 3.860379 0.903992 150 177 222
2.379164 4.077021 0.713309 4 30 103
2.509141 4.139765 0.812954 97 101 106
2.567919 4.095392 0.829719 78 85 88
2.620697 3.860379 0.903992 150 177 222
2.381289 4.097410 0.719118 30 8 1
2.620697 3.860379 0.903992 150 177 222
2.620697 3.860379 0.903992 150 177 222
2.385066 4.104301 0.691505 21 61 111
2.620697 3.860379 0.903992 150 177 222
2.465345 4.150277 0.786080 91 91 91
2.384742 4.057673 0.705560 1 29 89
2.415622 4.004223 0.755289 140 165 216
2.412688 4.050130 0.870469 47 50 127
2.529238 3.949720 0.880155 145 168 216
2.479554 3.980269 0.870342 145 165 209
2.620697 3.860379 0.903992 150 177 222
2.620697 3.860379 0.903992 150 177 222
2.560036 4.108633 0.754756 86 90 88
2.564012 4.102039 0.795546 82 88 83
2.384768 4.101871 0.706090 28 68 119
2.620697 3.860379 0.903992 150 177 222
2.620697 3.860379 0.903992 150 177 222
2.620697 3.860379 0.903992 150 177 222
2.620697 3.860379 0.903992 150 177 222
2.591945 3.879615 0.850469 151 176 222
2.446778 3.980537 0.796194 138 162 210
2.620697 3.860379 0.903992 150 177 222
2.620697 3.860379 0.903992 150 177 222
2.484545 4.169940 0.728953 84 85 89
2.620697 3.860379 0.903992 150 177 222
2.620697 3.860379 0.903992 150 177 222
2.375271 4.047219 0.685899 2 34 91
2.414357 4.121891 0.710388 1 1 3
2.499673 4.154037 0.825180 94 98 101
2.620697 3.860379 0.903992 150 177 222
2.579504 4.093321 0.794676 82 89 93
2.620697 3.860379 0.903992 150 177 222
2.620697 3.860379 0.903992 150 177 222
2.620697 3.860379 0.903992 150 177 222
2.530743 4.124821 0.800723 89 89 90
2.620697 3.860379 0.903992 150 177 222
2.620697 3.860379 0.903992 150 177 222
2.620697 3.860379 0.903992 150 177 222
2.533330 4.121724 0.790756 85 88 86
2.620697 3.860379 0.903992 150 177 222
2.620697 3.860379 0.903992 150 177 222
2.620697 3.860379 0.903992 150 177 222
2.510649 4.134178 0.844285 81 82 86
2.620697 3.860379 0.903992 150 177 222
2.418156 4.011360 0.794640 141 166 217
2.517718 3.943254 0.820391 150 170 213
2.562545 4.103878 0.790040 81 86 85
2.479327 3.953586 0.780507 143 163 206
2.620697 3.860379 0.903992 150 177 222
2.415041 4.007188 0.769480 141 166 218
2.521529 4.149360 0.761307 100 109 106
2.523384 4.120050 0.856701 87 88 88
2.368032 4.079165 0.665283 25 70 123
2.500463 3.960393 0.853971 148 169 208
2.464197 3.963042 0.775406 146 164 207
2.458778 3.948562 0.719751 137 163 210
2.620697 3.860379 0.903992 150 177 222
2.620697 3.860379 0.903992 150 177 222
2.620697 3.860379 0.903992 150 177 222
2.620697 3.860379 0.903992 150 177 222
2.573719 4.098201 0.794926 83 88 89
2.503370 3.958728 0.850259 149 170 207
2.620697 3.860379 0.903992 150 177 222
2.620697 3.860379 0.903992 150 177 222
2.432651 4.125209 0.712332 22 9 2
2.459382 3.976878 0.811070 144 164 210
2.595841 3.875104 0.845065 153 175 223
2.620697 3.860379 0.903992 150 177 222
2.620697 3.860379 0.903992 150 177 222
2.556843 3.911351 0.825557 149 175 221
2.380330 4.094225 0.695806 25 68 120
2.620697 3.860379 0.903992 150 177 222
2.620697 3.860379 0.903992 150 177 222
2.517092 4.154195 0.770641 92 97 100
2.527403 4.134243 0.750136 99 99 105
2.430407 3.986789 0.749002 134 162 211
2.556927 4.099414 0.835754 77 84 83
2.562663 4.097929 0.814821 84 85 85
2.539106 4.109442 0.855309 89 90 93
2.511249 4.165979 0.704031 89 98 98
2.620697 3.860379 0.903992 150 177 222
2.510934 4.156110 0.784780 90 94 90
2.402801 4.049482 0.735234 1 23 85
2.433298 4.134431 0.750667 8 4 1
2.388366 4.107872 0.705042 30 64 115
2.457226 4.153195 0.852467 91 92 88
2.567750 4.095010 0.834711 80 88 84
2.620697 3.860379 0.903992 150 177 222
2.620697 3.860379 0.903992 150 177 222
2.533863 3.921349 0.800296 150 169 215
2.513355 3.953852 0.849594 148 170 208
2.620697 3.860379 0.903992 150 177 222
2.517031 3.929524 0.786831 146 168 213
2.620697 3.860379 0.903992 150 177 222
2.620697 3.860379 0.903992 150 177 222
2.620697 3.860379 0.903992 150 177 222
2.620697 3.860379 0.903992 150 177 222
2.620697 3.860379 0.903992 150 177 222
2.535386 3.940427 0.874792 144 167 215
2.397887 4.027392 0.679292 2 25 89
2.620697 3.860379 0.903992 150 177 222
2.460007 3.974611 0.805145 146 164 209
2.620697 3.860379 0.903992 150 177 222
2.620697 3.860379 0.903992 150 177 222
2.413569 4.030221 0.817638 138 163 223
2.620697 3.860379 0.903992 150 177 222
2.620697 3.860379 0.903992 150 177 222
2.620697 3.860379 0.903992 150 177 222
2.382892 4.092707 0.743944 33 19 29
2.620697 3.860379 0.903992 150 177 222
2.620697 3.860379 0.903992 150 177 222
2.620697 3.860379 0.903992 150 177 222
2.620697 3.860379 0.903992 150 177 222
2.384492 4.099065 0.735300 44 17 12
2.620697 3.860379 0.903992 150 177 222
2.620697 3.860379 0.903992 150 177 222
2.504489 3.953202 0.824337 142 168 209
2.620697 3.860379 0.903992 150 177 222
2.533381 4.117122 0.819270 86 87 90
2.620697 3.860379 0.903992 150 177 222
2.620697 3.860379 0.903992 150 177 222
2.620697 3.860379 0.903992 150 177 222
2.414255 4.058955 0.795655 1 13 75
2.620697 3.860379 0.903992 150 177 222
2.445020 4.154992 0.844369 2 5 2
2.620697 3.860379 0.903992 150 177 222
2.620697 3.860379 0.903992 150 177 222
2.620697 3.860379 0.903992 150 177 222
2.620697 3.860379 0.903992 150 177 222
2.620697 3.860379 0.903992 150 177 222
2.557505 4.092772 0.870695 83 87 88
2.393703 4.052702 0.714523 1 29 86
2.480073 4.153105 0.875069 92 95 91
2.620697 3.860379 0.903992 150 177 222
2.620697 3.860379 0.903992 150 177 222
2.472055 3.965933 0.799166 144 165 209
2.593144 3.879798 0.855038 150 177 222
2.620697 3.860379 0.903992 150 177 222
2.593756 4.085114 0.799469 84 92 97
2.474370 4.166805 0.704298 83 85 84
2.620697 3.860379 0.903992 150 177 222
2.620697 3.860379 0.903992 150 177 222
2.499022 3.956691 0.844289 148 168 210
2.455777 3.957726 0.729518 142 164 210
2.620697 3.860379 0.903992 150 177 222
2.620697 3.860379 0.903992 150 177 222
2.574037 4.099279 0.785153 82 89 94
2.459637 3.971954 0.785272 145 165 209
2.620697 3.860379 0.903992 150 177 222
2.620697 3.860379 0.903992 150 177 222
2.503588 3.966429 0.874455 148 170 208
2.620697 3.860379 0.903992 150 177 222
2.620697 3.860379 0.903992 150 177 222
2.426664 4.018564 0.876452 139 165 210
2.484895 4.164225 0.815713 91 92 94
2.539092 3.919555 0.810212 150 169 216
2.443756 4.131884 0.759644 92 95 91
2.620697 3.860379 0.903992 150 177 222
2.415642 4.120601 0.706327 1 1 7
2.534587 4.115678 0.831187 82 85 86
2.620697 3.860379 0.903992 150 177 222
2.620697 3.860379 0.903992 150 177 222
2.620697 3.860379 0.903992 150 177 222
2.620697 3.860379 0.903992 150 177 222
2.586470 3.885509 0.844544 150 177 222
2.620697 3.860379 0.903992 150 177 222
2.416734 4.008626 0.774407 141 166 219
2.620697 3.860379 0.903992 150 177 222
2.620697 3.860379 0.903992 150 177 222
2.530791 4.116141 0.845531 87 90 90
2.620697 3.860379 0.903992 150 177 222
2.429204 4.124879 0.705521 24 7 5
2.403397 4.106166 0.665871 15 38 65
2.581855 4.092273 0.799602 86 90 95
2.620697 3.860379 0.903992 150 177 222
2.407650 4.109930 0.679661 2 8 10
2.597868 4.082417 0.784463 83 93 96
2.601013 4.076986 0.794534 85 92 95
2.620697 3.860379 0.903992 150 177 222
2.479801 3.973519 0.849659 148 168 209
2.488922 4.162731 0.819854 89 92 96
2.620697 3.860379 0.903992 150 177 222
2.620697 3.860379 0.903992 150 177 222
2.620697 3.860379 0.903992 150 177 222
2.464073 4.147711 0.800306 84 95 88
2.620697 3.860379 0.903992 150 177 222
2.486037 4.168039 0.795233 88 90 91
2.620697 3.860379 0.903992 150 177 222
2.592029 3.879372 0.844845 153 176 221
2.620697 3.860379 0.903992 150 177 222
2.500571 3.954229 0.820420 143 166 207
2.620697 3.860379 0.903992 150 177 222
2.529414 4.149742 0.723097 103 110 116
2.620697 3.860379 0.903992 150 177 222
2.620697 3.860379 0.903992 150 177 222
2.515574 4.161851 0.759961 96 105 102
2.434562 4.146972 0.844305 1 1 1
2.486576 4.170593 0.785306 88 89 84
2.598394 4.079844 0.810133 86 92 93
2.620697 3.860379 0.903992 150 177 222
2.468440 4.158169 0.763144 88 89 84
2.620697 3.860379 0.903992 150 177 222
2.620697 3.860379 0.903992 150 177 222
2.620697 3.860379 0.903992 150 177 222
2.620697 3.860379 0.903992 150 177 222
2.571821 3.894492 0.840150 149 176 222
2.504171 3.943625 0.794170 146 167 211
2.440152 4.148616 0.850895 30 42 30
2.548712 4.115329 0.729974 80 85 81
2.620697 3.860379 0.903992 150 177 222
2.620697 3.860379 0.903992 150 177 222
2.620697 3.860379 0.903992 150 177 222
2.620697 3.860379 0.903992 150 177 222
2.620697 3.860379 0.903992 150 177 222
2.508979 3.955667 0.838833 145 170 210
2.620697 3.860379 0.903992 150 177 222
2.527083 4.148215 0.696014 73 73 68
2.620697 3.860379 0.903992 150 177 222
2.620697 3.860379 0.903992 150 177 222
2.529954 4.148944 0.714872 97 93 97
2.620697 3.860379 0.903992 150 177 222
2.620697 3.860379 0.903992 150 177 222
2.620697 3.860379 0.903992 150 177 222
2.620697 3.860379 0.903992 150 177 222
2.620697 3.860379 0.903992 150 177 222
2.702451 3.773522 0.885883 155 178 223
2.533476 4.114416 0.845260 86 89 92
2.371463 4.062322 0.691233 5 32 107
2.392545 4.076455 0.752062 2 26 83
2.520106 4.149150 0.770449 89 98 99
2.620697 3.860379 0.903992 150 177 222
2.620697 3.860379 0.903992 150 177 222
2.620697 3.860379 0.903992 150 177 222
2.620697 3.860379 0.903992 150 177 222
2.369472 4.072635 0.695513 25 19 35
2.620697 3.860379 0.903992 150 177 222
2.620697 3.860379 0.903992 150 177 222
2.563415 4.095596 0.839983 74 78 82
2.620697 3.860379 0.903992 150 177 222
2.620697 3.860379 0.903992 150 177 222
2.620697 3.860379 0.903992 150 177 222
2.620697 3.860379 0.903992 150 177 222
2.453894 4.142446 0.790203 83 95 87
2.490459 3.964710 0.853954 148 168 210
2.620697 3.860379 0.903992 150 177 222
2.425139 3.997965 0.778977 141 164 213
2.558782 3.917982 0.871416 147 170 220
2.620697 3.860379 0.903992 150 177 222
2.459809 4.152519 0.854508 87 90 90
2.495782 4.173633 0.735291 87 86 91
2.544118 3.914211 0.802804 150 174 223
2.620697 3.860379 0.903992 150 177 222
2.420670 4.018398 0.840303 140 162 213
2.513048 4.162994 0.702011 93 98 101
2.552441 3.923687 0.848526 150 170 220
2.620697 3.860379 0.903992 150 177 222
2.478369 4.165980 0.721832 84 85 89
2.620697 3.860379 0.903992 150 177 222
2.620697 3.860379 0.903992 150 177 222
2.567512 4.103513 0.750007 85 89 90
2.423056 4.017144 0.843856 142 161 211
2.620697 3.860379 0.903992 150 177 222
2.542867 4.105265 0.850500 89 90 94
2.620697 3.860379 0.903992 150 177 222
2.620697 3.860379 0.903992 150 177 222
2.493667 4.151346 0.855401 96 97 104
2.620697 3.860379 0.903992 150 177 222
2.620697 3.860379 0.903992 150 177 222
2.620697 3.860379 0.903992 150 177 222
2.479750 3.970510 0.841085 146 165 211
2.500920 4.171022 0.755908 90 90 92
2.620697 3.860379 0.903992 150 177 222
2.620697 3.860379 0.903992 150 177 222
2.553010 4.093058 0.874599 84 87 87
2.609089 4.062614 0.805383 79 85 90
2.620697 3.860379 0.903992 150 177 222
2.620697 3.860379 0.903992 150 177 222
2.521362 4.144722 0.773754 98 100 101
2.564256 4.108333 0.740534 86 87 85
2.382716 4.081657 0.724126 3 25 100
2.620697 3.860379 0.903992 150 177 222
2.403244 4.061247 0.760266 2 24 84
2.620697 3.860379 0.903992 150 177 222
2.620697 3.860379 0.903992 150 177 222
2.620697 3.860379 0.903992 150 177 222
2.620697 3.860379 0.903992 150 177 222
2.423561 4.001858 0.769840 140 167 214
2.620697 3.860379 0.903992 150 177 222
2.620697 3.860379 0.903992 150 177 222
2.493436 4.145556 0.869330 96 100 104
2.620697 3.860379 0.903992 150 177 222
2.620697 3.860379 0.903992 150 177 222
2.433522 4.008413 0.860988 142 165 211
2.539164 4.111769 0.830365 84 86 87
2.620697 3.860379 0.903992 150 177 222
2.601200 4.068151 0.860412 82 89 88
2.713949 3.777611 0.925336 155 177 223
2.620697 3.860379 0.903992 150 177 222
2.620697 3.860379 0.903992 150 177 222
2.620697 3.860379 0.903992 150 177 222
2.620697 3.860379 0.903992 150 177 222
2.723936 3.771541 0.904962 156 173 218
2.480204 4.167546 0.710228 83 85 88
2.620697 3.860379 0.903992 150 177 222
2.620697 3.860379 0.903992 150 177 222
2.464166 3.969956 0.795536 146 164 208
2.620697 3.860379 0.903992 150 177 222
2.620697 3.860379 0.903992 150 177 222
2.410939 4.110842 0.675924 11 23 55
2.514706 4.165627 0.709142 91 99 102
2.620697 3.860379 0.903992 150 177 222
2.398264 4.114465 0.705295 9 20 55
2.620697 3.860379 0.903992 150 177 222
2.479009 3.952880 0.785178 143 163 206
2.620697 3.860379 0.903992 150 177 222
2.620697 3.860379 0.903992 150 177 222
2.529463 4.139366 0.720243 105 108 109
2.620697 3.860379 0.903992 150 177 222
2.620697 3.860379 0.903992 150 177 222
2.538711 4.120275 0.764545 72 70 76
2.620697 3.860379 0.903992 150 177 222
2.620697 3.860379 0.903992 150 177 222
2.414195 4.056305 0.785392 3 18 77
2.620697 3.860379 0.903992 150 177 222
2.519518 4.119645 0.879508 84 88 90
2.620697 3.860379 0.903992 150 177 222
2.568626 4.097658 0.803477 83 88 88
2.518187 4.154165 0.765008 99 109 104
2.620697 3.860379 0.903992 150 177 222
2.407076 4.052119 0.749913 1 21 80
2.620697 3.860379 0.903992 150 177 222
2.620697 3.860379 0.903992 150 177 222
2.620697 3.860379 0.903992 150 177 222
2.620697 3.860379 0.903992 150 177 222
2.620697 3.860379 0.903992 150 177 222
2.620697 3.860379 0.903992 150 177 222
2.519037 4.139200 0.789299 97 100 107
2.430171 4.015653 0.870277 143 163 210
2.620697 3.860379 0.903992 150 177 222
2.620697 3.860379 0.903992 150 177 222
2.698592 3.778400 0.890507 155 178 223
2.620697 3.860379 0.903992 150 177 222
2.620697 3.860379 0.903992 150 177 222
2.510183 3.946725 0.812770 145 169 210
2.503636 3.953957 0.830759 144 168 210
2.620697 3.860379 0.903992 150 177 222
2.620697 3.860379 0.903992 150 177 222
2.572033 4.094224 0.824666 72 79 85
2.620697 3.860379 0.903992 150 177 222
2.620697 3.860379 0.903992 150 177 222
2.490596 4.149961 0.864755 97 99 101
2.620697 3.860379 0.903992 150 177 222
2.620697 3.860379 0.903992 150 177 222
2.539249 4.125613 0.749630 82 86 87
2.620697 3.860379 0.903992 150 177 222
2.421148 4.014531 0.829536 136 163 211
2.620697 3.860379 0.903992 150 177 222
2.620697 3.860379 0.903992 150 177 222
2.682693 3.798740 0.886016 151 177 223
2.620697 3.860379 0.903992 150 177 222
2.620697 3.860379 0.903992 150 177 222
2.516860 4.133671 0.832147 83 86 88
2.620697 3.860379 0.903992 150 177 222
2.620697 3.860379 0.903992 150 177 222
2.620697 3.860379 0.903992 150 177 222
2.620697 3.860379 0.903992 150 177 222
2.620697 3.860379 0.903992 150 177 222
2.620697 3.860379 0.903992 150 177 222
2.459336 3.976936 0.819606 141 164 208
2.620697 3.860379 0.903992 150 177 222
2.456641 4.151337 0.840010 88 92 88
2.620697 3.860379 0.903992 150 177 222
2.620697 3.860379 0.903992 150 177 222
2.620697 3.860379 0.903992 150 177 222
2.620697 3.860379 0.903992 150 177 222
2.620697 3.860379 0.903992 150 177 222
2.499380 3.957080 0.836766 145 168 210
2.475575 4.161541 0.820040 81 88 89
2.620697 3.860379 0.903992 150 177 222
2.620697 3.860379 0.903992 150 177 222
2.620697 3.860379 0.903992 150 177 222
2.620697 3.860379 0.903992 150 177 222
2.620697 3.860379 0.903992 150 177 222
2.620697 3.860379 0.903992 150 177 222
2.620697 3.860379 0.903992 150 177 222
2.620697 3.860379 0.903992 150 177 222
2.490736 4.171216 0.755463 87 95 79
2.583273 4.092600 0.803685 87 91 94
2.441026 3.987122 0.789915 133 161 209
2.620697 3.860379 0.903992 150 177 222
2.620697 3.860379 0.903992 150 177 222
2.620697 3.860379 0.903992 150 177 222
2.445514 4.002735 0.864612 141 165 208
2.548085 4.116218 0.739936 80 85 83
2.527163 3.930482 0.807382 151 168 205
2.620697 3.860379 0.903992 150 177 222
2.484867 4.169778 0.770744 86 90 90
2.620697 3.860379 0.903992 150 177 222
2.454464 4.142573 0.778722 92 92 92
2.620697 3.860379 0.903992 150 177 222
2.530427 4.150681 0.700592 72 73 68
2.464182 3.977627 0.819626 141 164 208
2.408418 4.037911 0.740240 4 26 78
2.620697 3.860379 0.903992 150 177 222
2.490637 4.177358 0.694982 86 79 85
2.620697 3.860379 0.903992 150 177 222
2.620697 3.860379 0.903992 150 177 222
2.620697 3.860379 0.903992 150 177 222
2.620697 3.860379 0.903992 150 177 222
2.515686 4.159389 0.765861 96 105 101
2.407785 4.111940 0.688198 1 1 4
2.572165 4.099730 0.749320 86 91 90
2.620697 3.860379 0.903992 150 177 222
2.519289 4.123500 0.859342 88 88 91
2.620697 3.860379 0.903992 150 177 222
2.722564 3.765665 0.890435 154 171 216
2.620697 3.860379 0.903992 150 177 222
2.726886 3.770584 0.913999 156 175 219
2.389349 4.109117 0.715406 24 58 113
2.484219 3.967857 0.844548 147 165 211
2.620697 3.860379 0.903992 150 177 222
2.385172 4.073928 0.725524 1 23 85
2.620697 3.860379 0.903992 150 177 222
2.593552 4.077001 0.855172 85 91 92
2.620697 3.860379 0.903992 150 177 222
2.504081 4.166804 0.709680 91 95 93
2.620697 3.860379 0.903992 150 177 222
2.493746 4.157974 0.829721 82 84 87
2.411991 4.014435 0.779313 141 166 216
2.510182 4.134624 0.855035 95 98 99
2.620697 3.860379 0.903992 150 177 222
2.540160 4.113966 0.784819 85 87 89
2.440156 4.006073 0.870063 142 161 209
2.527679 4.140162 0.699885 86 92 89
2.620697 3.860379 0.903992 150 177 222
2.620697 3.860379 0.903992 150 177 222
2.620697 3.860379 0.903992 150 177 222
2.620697 3.860379 0.903992 150 177 222
2.620697 3.860379 0.903992 150 177 222
2.620697 3.860379 0.903992 150 177 222
2.422607 4.003753 0.784253 143 167 213
2.411250 4.037708 0.751653 50 50 127
2.620697 3.860379 0.903992 150 177 222
2.558064 4.111537 0.750049 81 85 86
2.620697 3.860379 0.903992 150 177 222
2.483350 3.979827 0.876100 145 165 209
2.434734 3.995810 0.800547 138 164 209
2.620697 3.860379 0.903992 150 177 222
2.620697 3.860379 0.903992 150 177 222
2.365745 4.059360 0.676384 9 42 105
2.397079 4.054412 0.721234 2 24 83
2.620697 3.860379 0.903992 150 177 222
2.620697 3.860379 0.903992 150 177 222
2.620697 3.860379 0.903992 150 177 222
2.620697 3.860379 0.903992 150 177 222
2.620697 3.860379 0.903992 150 177 222
2.620697 3.860379 0.903992 150 177 222
2.620697 3.860379 0.903992 150 177 222
2.620697 3.860379 0.903992 150 177 222
2.406427 4.073123 0.789098 2 24 83
2.510788 3.955857 0.860657 148 169 208
2.427031 4.126191 0.700000 25 9 2
2.620697 3.860379 0.903992 150 177 222
2.620697 3.860379 0.903992 150 177 222
2.557798 4.076022 0.949874 93 100 97
2.620697 3.860379 0.903992 150 177 222
2.620697 3.860379 0.903992 150 177 222
2.388087 4.062782 0.714027 5 24 85
2.413705 4.121882 0.715569 1 1 1
2.620697 3.860379 0.903992 150 177 222
2.400855 4.027881 0.690301 2 21 83
2.567535 4.088339 0.865362 85 87 89
2.548550 4.103422 0.820063 84 86 86
2.620697 3.860379 0.903992 150 177 222
2.620697 3.860379 0.903992 150 177 222
2.521220 4.162388 0.699081 88 96 99
2.704599 3.794399 0.925432 153 175 223
2.620697 3.860379 0.903992 150 177 222
2.620697 3.860379 0.903992 150 177 222
2.425235 3.997036 0.758737 138 165 214
2.620697 3.860379 0.903992 150 177 222
2.414296 4.113236 0.685678 7 16 38
2.620697 3.860379 0.903992 150 177 222
2.620697 3.860379 0.903992 150 177 222
2.573874 4.081614 0.865184 83 88 91
2.470575 3.970890 0.814361 143 164 209
2.620697 3.860379 0.903992 150 177 222
2.720460 3.791002 0.954923 152 173 223
2.620697 3.860379 0.903992 150 177 222
2.415255 4.017575 0.804034 140 163 219
2.620697 3.860379 0.903992 150 177 222
2.544401 4.101380 0.859817 85 89 93
2.620697 3.860379 0.903992 150 177 222
2.399822 4.110726 0.691780 7 7 25
2.620697 3.860379 0.903992 150 177 222
2.496588 3.965395 0.867700 148 168 208
2.620697 3.860379 0.903992 150 177 222
2.620697 3.860379 0.903992 150 177 222
2.620697 3.860379 0.903992 150 177 222
2.520202 4.156311 0.759038 98 107 105
2.509324 4.147717 0.820490 93 101 102
2.470087 4.156367 0.775724 90 90 92
2.620697 3.860379 0.903992 150 177 222
2.479542 4.160141 0.848421 89 91 91
2.549400 4.094670 0.859480 84 86 83
2.547568 4.109840 0.800153 85 86 87
2.620697 3.860379 0.903992 150 177 222
2.620697 3.860379 0.903992 150 177 222
2.620697 3.860379 0.903992 150 177 222
2.553733 4.103014 0.804981 83 86 91
2.620697 3.860379 0.903992 150 177 222
2.620697 3.860379 0.903992 150 177 222
2.369497 4.064123 0.681926 4 28 105
2.376559 4.043540 0.680316 1 31 92
2.620697 3.860379 0.903992 150 177 222
2.489872 3.964914 0.857989 147 168 210
2.620697 3.860379 0.903992 150 177 222
2.727883 3.763851 0.895185 153 169 215
2.620697 3.860379 0.903992 150 177 222
2.620697 3.860379 0.903992 150 177 222
2.472755 4.163277 0.721412 86 86 88
2.528538 4.140893 0.709824 93 96 107
2.620697 3.860379 0.903992 150 177 222
2.620697 3.860379 0.903992 150 177 222
2.620697 3.860379 0.903992 150 177 222
2.712952 3.771052 0.900740 156 176 219
2.620697 3.860379 0.903992 150 177 222
2.411496 4.032349 0.799623 125 137 205
2.620697 3.860379 0.903992 150 177 222
2.475389 3.966117 0.816309 142 165 209
2.549190 4.108461 0.804488 84 86 89
2.699786 3.791310 0.910143 154 177 222
2.620697 3.860379 0.903992 150 177 222
2.588023 4.080215 0.843963 85 89 92
2.449456 4.145679 0.809682 91 92 92
2.620697 3.860379 0.903992 150 177 222
2.535431 4.109521 0.863340 88 92 96
2.620697 3.860379 0.903992 150 177 222
2.620697 3.860379 0.903992 150 177 222
2.430759 4.003960 0.819815 139 165 210
2.620697 3.860379 0.903992 150 177 222
2.587543 4.090662 0.799102 86 92 97
2.620697 3.860379 0.903992 150 177 222
2.412966 4.037792 0.815716 135 145 216
2.620697 3.860379 0.903992 150 177 222
2.620697 3.860379 0.903992 150 177 222
2.620697 3.860379 0.903992 150 177 222
2.529620 3.936521 0.836081 157 165 204
2.620697 3.860379 0.903992 150 177 222
2.475191 3.961912 0.790658 144 165 209
2.489985 4.154953 0.844812 86 86 86
2.431252 3.992118 0.774804 134 161 210
2.620697 3.860379 0.903992 150 177 222
2.450571 4.139811 0.776213 92 92 95
2.620697 3.860379 0.903992 150 177 222
2.415148 4.016825 0.799848 142 161 216
2.620697 3.860379 0.903992 150 177 222
2.620697 3.860379 0.903992 150 177 222
2.469376 3.975494 0.819655 143 164 209
2.620697 3.860379 0.903992 150 177 222
2.620697 3.860379 0.903992 150 177 222
2.620697 3.860379 0.903992 150 177 222
2.681325 3.815247 0.925304 153 179 223
2.620697 3.860379 0.903992 150 177 222
2.620697 3.860379 0.903992 150 177 222
2.620697 3.860379 0.903992 150 177 222
2.620697 3.860379 0.903992 150 177 222
2.722950 3.771200 0.911552 158 174 219
2.646354 3.841140 0.914914 150 175 223
2.395722 4.033164 0.697919 9 30 91
2.620697 3.860379 0.903992 150 177 222
2.620697 3.860379 0.903992 150 177 222
2.620697 3.860379 0.903992 150 177 222
2.620697 3.860379 0.903992 150 177 222
2.620697 3.860379 0.903992 150 177 222
2.620697 3.860379 0.903992 150 177 222
2.598995 4.077731 0.835612 83 91 92
2.620697 3.860379 0.903992 150 177 222
2.496891 4.171284 0.744525 86 87 91
2.620697 3.860379 0.903992 150 177 222
2.393373 4.061561 0.730898 5 24 88
2.417513 4.016304 0.810145 138 162 211
2.438424 3.974935 0.760628 136 161 209
2.620697 3.860379 0.903992 150 177 222
2.500815 4.171828 0.759169 90 90 88
2.620697 3.860379 0.903992 150 177 222
2.620697 3.860379 0.903992 150 177 222
2.413530 4.023144 0.809618 132 160 219
2.369699 4.059600 0.684933 2 35 108
2.578320 4.085626 0.844695 83 87 88
2.620697 3.860379 0.903992 150 177 222
2.620697 3.860379 0.903992 150 177 222
2.620697 3.860379 0.903992 150 177 222
2.620697 3.860379 0.903992 150 177 222
2.551890 3.922474 0.841016 149 170 220
2.620697 3.860379 0.903992 150 177 222
2.725299 3.771533 0.913715 156 175 218
2.620697 3.860379 0.903992 150 177 222
2.530818 4.118956 0.813071 85 87 91
2.620697 3.860379 0.903992 150 177 222
2.665436 3.822807 0.910013 159 179 222
2.436366 4.013076 0.870446 140 163 210
2.620697 3.860379 0.903992 150 177 222
2.473726 3.977086 0.840117 144 163 208
2.620697 3.860379 0.903992 150 177 222
2.620697 3.860379 0.903992 150 177 222
2.562709 4.100886 0.804236 83 88 86
2.620697 3.860379 0.903992 150 177 222
2.477117 4.164662 0.786204 89 88 95
2.664582 3.820572 0.905063 156 178 223
2.602728 4.072163 0.809608 82 90 94
2.620697 3.860379 0.903992 150 177 222
2.620697 3.860379 0.903992 150 177 222
2.533040 4.124666 0.784816 88 89 90
2.489474 4.159957 0.824166 92 94 93
2.439957 4.142938 0.785611 91 92 78
2.694724 3.792398 0.904961 153 175 223
2.412410 4.062586 0.795735 2 21 79
2.479751 4.157719 0.845173 90 94 91
2.407631 4.024107 0.729574 115 121 201
2.409405 4.026072 0.740345 133 151 218
2.620697 3.860379 0.903992 150 177 222
2.509057 4.143232 0.824814 96 101 102
2.620697 3.860379 0.903992 150 177 222
2.475281 4.163953 0.738332 85 90 86
2.620697 3.860379 0.903992 150 177 222
2.385284 4.044472 0.690464 6 34 87
2.561678 4.108356 0.766384 87 86 86
2.519839 4.160351 0.735884 99 105 103
2.411483 4.044809 0.883029 122 121 195
2.620697 3.860379 0.903992 150 177 222
2.620697 3.860379 0.903992 150 177 222
2.620697 3.860379 0.903992 150 177 222
2.528425 4.142681 0.757198 99 106 106
2.473952 3.944429 0.739720 144 166 210
2.620697 3.860379 0.903992 150 177 222
2.620697 3.860379 0.903992 150 177 222
2.620697 3.860379 0.903992 150 177 222
2.437042 4.124353 0.711509 16 2 1
2.478634 4.165202 0.741118 85 91 83
2.620697 3.860379 0.903992 150 177 222
2.515649 4.149597 0.784364 89 92 91
2.572250 4.091352 0.829757 83 86 88
2.484292 3.977476 0.870155 145 165 208
2.501780 4.160841 0.787870 92 94 97
2.499414 4.140370 0.870464 96 100 103
2.620697 3.860379 0.903992 150 177 222
2.538774 4.128644 0.730173 86 90 91
2.620697 3.860379 0.903992 150 177 222
2.570232 4.100319 0.781478 84 86 91
2.620697 3.860379 0.903992 150 177 222
2.471389 4.159765 0.828172 89 89 88
2.485199 4.170746 0.755089 89 87 89
2.620697 3.860379 0.903992 150 177 222
2.620697 3.860379 0.903992 150 177 222
2.620697 3.860379 0.903992 150 177 222
2.620697 3.860379 0.903992 150 177 222
2.482567 3.945456 0.745352 144 166 209
2.659893 3.823301 0.904528 155 178 223
2.620697 3.860379 0.903992 150 177 222
2.595402 4.080241 0.829741 79 84 88
2.537643 4.127494 0.744813 84 88 89
2.620697 3.860379 0.903992 150 177 222
2.620697 3.860379 0.903992 150 177 222
2.620697 3.860379 0.903992 150 177 222
2.567873 4.094720 0.815052 85 86 87
2.620697 3.860379 0.903992 150 177 222
2.620697 3.860379 0.903992 150 177 222
2.620697 3.860379 0.903992 150 177 222
2.514061 4.160566 0.689104 92 96 95
2.620697 3.860379 0.903992 150 177 222
2.413807 4.023578 0.804303 132 161 220
2.620697 3.860379 0.903992 150 177 222
2.503461 3.948980 0.815381 142 166 207
2.620697 3.860379 0.903992 150 177 222
2.660426 3.822153 0.888976 154 177 222
2.620697 3.860379 0.903992 150 177 222
2.620697 3.860379 0.903992 150 177 222
2.620697 3.860379 0.903992 150 177 222
2.620697 3.860379 0.903992 150 177 222
2.620697 3.860379 0.903992 150 177 222
2.620697 3.860379 0.903992 150 177 222
2.620697 3.860379 0.903992 150 177 222
2.489167 3.952199 0.779702 142 163 208
2.620697 3.860379 0.903992 150 177 222
2.485686 4.168862 0.780589 85 88 83
2.437757 4.132687 0.754554 10 3 2
2.620697 3.860379 0.903992 150 177 222
2.620697 3.860379 0.903992 150 177 222
2.620697 3.860379 0.903992 150 177 222
2.527686 4.144368 0.740329 102 108 108
2.620697 3.860379 0.903992 150 177 222
2.392742 4.067743 0.739719 1 22 88
2.409489 4.022885 0.760024 137 162 229
2.399082 4.119316 0.713760 8 17 51
2.620697 3.860379 0.903992 150 177 222
2.620697 3.860379 0.903992 150 177 222
2.620697 3.860379 0.903992 150 177 222
2.511754 4.149605 0.800088 96 101 103
2.592411 4.075385 0.870050 85 91 92
2.417169 4.050458 0.771701 27 24 101
2.620697 3.860379 0.903992 150 177 222
2.406782 4.057954 0.759546 11 33 74
2.620697 3.860379 0.903992 150 177 222
2.620697 3.860379 0.903992 150 177 222
2.480333 3.954094 0.788842 142 163 207
2.538313 4.103065 0.874890 89 93 90
2.419813 4.027075 0.855583 139 163 211
2.620697 3.860379 0.903992 150 177 222
2.620697 3.860379 0.903992 150 177 222
2.600362 4.080736 0.770581 81 93 98
2.620697 3.860379 0.903992 150 177 222
2.620697 3.860379 0.903992 150 177 222
2.406781 4.063092 0.778676 1 22 83
2.394605 4.079582 0.763787 1 21 87
2.620697 3.860379 0.903992 150 177 222
2.414610 4.118447 0.695131 7 16 38
2.620697 3.860379 0.903992 150 177 222
2.423781 4.122692 0.719573 2 3 6
2.459827 3.994960 0.873844 142 165 209
2.389365 4.068719 0.730157 1 24 86
2.593404 4.089573 0.765786 80 85 88
2.620697 3.860379 0.903992 150 177 222
2.413651 4.038620 0.864300 128 157 215
2.520062 4.163226 0.720870 99 107 109
2.620697 3.860379 0.903992 150 177 222
2.620697 3.860379 0.903992 150 177 222
2.452712 4.152535 0.863914 85 89 76
2.620697 3.860379 0.903992 150 177 222
2.471993 4.158954 0.800453 90 88 87
2.503701 3.954417 0.833273 145 168 211
2.582814 4.077291 0.860665 86 89 91
2.620697 3.860379 0.903992 150 177 222
2.533559 4.130637 0.733486 92 96 100
2.583470 4.083815 0.840308 79 83 90
2.500180 3.949973 0.810291 141 166 207
2.620697 3.860379 0.903992 150 177 222
2.541657 3.904668 0.771303 150 177 222
2.417349 4.031957 0.855356 143 166 221
2.620697 3.860379 0.903992 150 177 222
2.514408 4.125576 0.860906 91 92 97
2.620697 3.860379 0.903992 150 177 222
2.417767 4.038797 0.879957 134 164 217
2.493090 3.949818 0.803184 143 167 209
2.620697 3.860379 0.903992 150 177 222
2.543356 4.109848 0.786152 85 86 85
2.398553 4.120003 0.720363 15 34 79
2.573607 4.099943 0.744350 86 90 91
2.620697 3.860379 0.903992 150 177 222
2.464538 4.153481 0.851087 89 90 87
2.620697 3.860379 0.903992 150 177 222
2.690105 3.806512 0.919295 153 175 223
2.707247 3.793198 0.930687 151 177 223
2.620697 3.860379 0.903992 150 177 222
2.620697 3.860379 0.903992 150 177 222
2.620697 3.860379 0.903992 150 177 222
2.573959 4.101539 0.755270 85 93 91
2.540543 4.116533 0.756751 81 81 82
2.620697 3.860379 0.903992 150 177 222
2.704005 3.782391 0.914757 155 178 223
2.620697 3.860379 0.903992 150 177 222
2.620697 3.860379 0.903992 150 177 222
2.503107 3.937060 0.769886 145 168 211
2.498231 3.946963 0.790661 144 167 209
2.620697 3.860379 0.903992 150 177 222
2.494648 4.153462 0.849619 96 101 103
2.440479 4.152618 0.844777 2 5 2
2.700174 3.821672 0.965025 155 178 223
2.640026 3.855186 0.929758 151 177 223
2.703933 3.796422 0.927411 153 175 223
2.620697 3.860379 0.903992 150 177 222
2.620697 3.860379 0.903992 150 177 222
2.620697 3.860379 0.903992 150 177 222
2.454229 4.144071 0.796368 77 83 86
2.409556 4.018219 0.764307 139 167 227
2.620697 3.860379 0.903992 150 177 222
2.620697 3.860379 0.903992 150 177 222
2.558541 4.101490 0.804967 82 86 86
2.620697 3.860379 0.903992 150 177 222
2.620697 3.860379 0.903992 150 177 222
2.404539 4.077890 0.804732 2 24 78
2.380632 4.090343 0.715512 35 7 17
2.620697 3.860379 0.903992 150 177 222
2.620697 3.860379 0.903992 150 177 222
2.620697 3.860379 0.903992 150 177 222
2.538306 4.124933 0.719505 83 89 87
2.495857 4.153221 0.840706 93 100 98
2.455093 3.973246 0.799499 144 164 209
2.620697 3.860379 0.903992 150 177 222
2.469889 3.961148 0.780503 145 163 207
2.620697 3.860379 0.903992 150 177 222
2.620697 3.860379 0.903992 150 177 222
2.620697 3.860379 0.903992 150 177 222
2.515709 4.134493 0.825416 94 100 104
2.392674 4.043239 0.699104 1 29 86
2.620697 3.860379 0.903992 150 177 222
2.578060 4.081918 0.854747 82 88 91
2.620697 3.860379 0.903992 150 177 222
2.620697 3.860379 0.903992 150 177 222
2.620697 3.860379 0.903992 150 177 222
2.415389 4.041163 0.838718 138 153 218
2.620697 3.860379 0.903992 150 177 222
2.620697 3.860379 0.903992 150 177 222
2.384949 4.056760 0.701912 1 31 92
2.620697 3.860379 0.903992 150 177 222
2.489465 4.169817 0.770213 91 94 90
2.565079 4.098879 0.819459 85 86 85
2.401233 4.083351 0.806270 3 27 77
2.620697 3.860379 0.903992 150 177 222
2.620697 3.860379 0.903992 150 177 222
2.472517 4.161026 0.749796 88 89 84
2.416606 4.036501 0.847147 148 172 227
2.620697 3.860379 0.903992 150 177 222
2.620697 3.860379 0.903992 150 177 222
2.530656 4.143525 0.724404 102 108 109
2.620697 3.860379 0.903992 150 177 222
2.620697 3.860379 0.903992 150 177 222
2.418365 4.031003 0.875813 138 167 216
2.620697 3.860379 0.903992 150 177 222
2.620697 3.860379 0.903992 150 177 222
2.390285 4.068455 0.734005 1 24 83
2.620697 3.860379 0.903992 150 177 222
2.620697 3.860379 0.903992 150 177 222
2.620697 3.860379 0.903992 150 177 222
2.620697 3.860379 0.903992 150 177 222
2.620697 3.860379 0.903992 150 177 222
2.620697 3.860379 0.903992 150 177 222
2.434686 4.148103 0.865170 5 4 3
2.620697 3.860379 0.903992 150 177 222
2.620697 3.860379 0.903992 150 177 222
2.396680 4.042638 0.705272 3 29 86
2.479911 4.173615 0.694321 102 95 100
2.620697 3.860379 0.903992 150 177 222
2.620697 3.860379 0.903992 150 177 222
2.620697 3.860379 0.903992 150 177 222
2.405534 4.061398 0.765259 1 22 83
2.568046 4.105795 0.734816 87 88 90
2.575924 4.087742 0.824274 74 83 85
2.620697 3.860379 0.903992 150 177 222
2.620697 3.860379 0.903992 150 177 222
2.503595 4.132250 0.875722 94 97 100
2.465364 4.150128 0.839856 88 90 89
2.620697 3.860379 0.903992 150 177 222
2.535902 4.129810 0.749170 88 92 96
2.620697 3.860379 0.903992 150 177 222
2.620697 3.860379 0.903992 150 177 222
2.367775 4.073907 0.689729 38 15 16
2.620697 3.860379 0.903992 150 177 222
2.620697 3.860379 0.903992 150 177 222
2.620697 3.860379 0.903992 150 177 222
2.665129 3.829105 0.926008 156 178 223
2.600657 4.072099 0.850484 85 90 91
2.699755 3.798041 0.925054 153 174 223
2.620697 3.860379 0.903992 150 177 222
2.620697 3.860379 0.903992 150 177 222
2.620697 3.860379 0.903992 150 177 222
2.467924 4.153818 0.811586 79 83 87
2.620697 3.860379 0.903992 150 177 222
2.665595 3.832230 0.930001 155 178 223
2.620697 3.860379 0.903992 150 177 222
2.620697 3.860379 0.903992 150 177 222
2.587545 4.090130 0.784973 84 93 96
2.620697 3.860379 0.903992 150 177 222
2.620697 3.860379 0.903992 150 177 222
2.620697 3.860379 0.903992 150 177 222
2.620697 3.860379 0.903992 150 177 222
2.620697 3.860379 0.903992 150 177 222
2.468670 4.156141 0.782350 86 92 91
2.389312 4.108930 0.710181 25 62 112
2.620697 3.860379 0.903992 150 177 222
2.494717 3.963806 0.855560 148 168 210
2.620697 3.860379 0.903992 150 177 222
2.620697 3.860379 0.903992 150 177 222
2.395424 4.108947 0.689560 10 19 49
2.631689 3.850730 0.889791 152 178 222
2.500156 3.951363 0.815257 143 167 208
2.498104 4.164509 0.789882 87 91 95
2.620697 3.860379 0.903992 150 177 222
2.415546 4.046218 0.836505 120 119 194
2.522050 4.139503 0.773934 98 103 107
2.620697 3.860379 0.903992 150 177 222
2.718684 3.771087 0.905134 158 175 220
2.433877 4.140911 0.775808 88 95 86
2.572877 3.904512 0.895214 152 175 220
2.708932 3.772371 0.899676 157 177 223
2.620697 3.860379 0.903992 150 177 222
2.620697 3.860379 0.903992 150 177 222
2.620697 3.860379 0.903992 150 177 222
2.411530 4.032846 0.744585 126 131 197
2.620697 3.860379 0.903992 150 177 222
2.400532 4.023510 0.684916 5 25 94
2.635208 3.848658 0.899449 151 177 223
2.620697 3.860379 0.903992 150 177 222
2.456946 4.001181 0.879320 144 164 207
2.620697 3.860379 0.903992 150 177 222
2.620697 3.860379 0.903992 150 177 222
2.440133 4.000063 0.830836 140 164 206
2.620697 3.860379 0.903992 150 177 222
2.620697 3.860379 0.903992 150 177 222
2.620697 3.860379 0.903992 150 177 222
2.588242 3.893622 0.900427 149 175 221
2.520795 4.164628 0.709802 95 100 103
2.620697 3.860379 0.903992 150 177 222
2.620697 3.860379 0.903992 150 177 222
2.620697 3.860379 0.903992 150 177 222
2.493978 3.965112 0.859712 147 168 209
2.453832 3.972592 0.794829 143 164 211