ply
format ascii 1.0
comment generated by downsample_and_prepare_room.mjs
element vertex 232
property float x
property float y
property float z
property uchar red
property uchar green
property uchar blue
end_header
0.866536 3.432896 0.339837 80 24 2
0.884820 3.714242 0.356202 86 30 16
0.884820 3.714242 0.356202 86 30 16
0.884820 3.714242 0.356202 86 30 16
0.884820 3.714242 0.356202 86 30 16
0.884820 3.714242 0.356202 86 30 16
0.884820 3.714242 0.356202 86 30 16
0.884820 3.714242 0.356202 86 30 16
0.864257 3.285440 0.006087 142 81 45
0.884820 3.714242 0.356202 86 30 16
0.901401 3.551987 0.413943 96 37 7
0.864676 3.272810 0.149568 131 74 38
0.884820 3.714242 0.356202 86 30 16
0.884820 3.714242 0.356202 86 30 16
0.884820 3.714242 0.356202 86 30 16
0.852371 3.559564 0.426534 123 127 119
0.884820 3.714242 0.356202 86 30 16
0.865857 3.264710 0.039830 185 125 74
0.863594 3.257460 0.003616 160 100 72
0.861406 3.250497 0.134933 135 94 67
0.884820 3.714242 0.356202 86 30 16
0.884820 3.714242 0.356202 86 30 16
0.884820 3.714242 0.356202 86 30 16
0.865164 3.382192 0.358163 131 80 42
0.857718 3.287887 0.107615 117 68 30
0.867245 3.271585 -0.000469 140 77 41
0.884820 3.714242 0.356202 86 30 16
0.867703 3.423394 0.355012 74 25 1
0.884820 3.714242 0.356202 86 30 16
0.884820 3.714242 0.356202 86 30 16
0.872714 3.433512 0.378799 77 22 4
0.859149 3.283045 0.094581 135 89 39
0.905180 3.546230 0.417208 100 37 8
0.884820 3.714242 0.356202 86 30 16
0.884820 3.714242 0.356202 86 30 16
0.893492 3.361923 0.408468 113 64 36
0.884820 3.714242 0.356202 86 30 16
0.884820 3.714242 0.356202 86 30 16
0.866170 3.266380 0.003626 153 81 45
0.851105 3.246720 0.298304 131 117 117
0.884820 3.714242 0.356202 86 30 16
0.865679 3.274386 0.157894 124 67 43
0.884820 3.714242 0.356202 86 30 16
0.864752 3.268030 0.156209 125 68 38
0.880340 3.512381 0.420966 109 47 19
0.862949 3.280578 0.021355 176 107 68
0.846521 3.529347 0.421331 104 54 26
0.884820 3.714242 0.356202 86 30 16
0.893959 3.544182 0.419377 105 50 20
0.861450 3.279898 0.283919 120 71 31
0.884820 3.714242 0.356202 86 30 16
0.884820 3.714242 0.356202 86 30 16
0.863444 3.273590 0.330078 115 66 34
0.884820 3.714242 0.356202 86 30 16
0.861942 3.273012 0.089462 145 89 39
0.893410 3.513911 0.400894 78 31 1
0.863178 3.284202 0.125850 128 83 37
0.884820 3.714242 0.356202 86 30 16
0.850445 3.565488 0.438832 141 78 80
0.841849 3.288113 0.118337 78 31 8
0.890595 3.499223 0.396055 85 24 1
0.884820 3.714242 0.356202 86 30 16
0.866556 3.256514 0.056782 164 114 76
0.896906 3.554489 0.414917 94 34 7
0.884820 3.714242 0.356202 86 30 16
0.863936 3.268570 0.180410 124 72 32
0.884820 3.714242 0.356202 86 30 16
0.901664 3.556996 0.419287 101 48 13
0.867899 3.281716 0.390207 111 61 33
0.884820 3.714242 0.356202 86 30 16
0.864108 3.370824 0.338976 121 80 61
0.864769 3.261506 0.116083 131 79 39
0.855935 3.534087 0.423668 70 34 22
0.884820 3.714242 0.356202 86 30 16
0.832167 3.287340 0.007894 81 29 5
0.884820 3.714242 0.356202 86 30 16
0.878518 3.457686 0.355392 88 23 3
0.869239 3.453193 0.334955 73 40 23
0.884820 3.714242 0.356202 86 30 16
0.884820 3.714242 0.356202 86 30 16
0.884820 3.714242 0.356202 86 30 16
0.841242 3.544521 0.421532 53 17 34
0.855400 3.562672 0.430613 100 73 69
0.884820 3.714242 0.356202 86 30 16
0.871696 3.461741 0.336676 57 29 22
0.884820 3.714242 0.356202 86 30 16
0.884820 3.714242 0.356202 86 30 16
0.858745 3.524541 0.422660 95 40 16
0.859590 3.256757 0.020156 198 137 88
0.884820 3.714242 0.356202 86 30 16
0.864705 3.252673 0.045708 164 118 75
0.864082 3.258299 0.045512 175 115 70
0.862686 3.312728 0.373270 112 58 37
0.860920 3.303475 0.360529 115 60 23
0.878470 3.451640 0.352893 89 30 1
0.884820 3.714242 0.356202 86 30 16
0.884820 3.714242 0.356202 86 30 16
0.884820 3.714242 0.356202 86 30 16
0.865970 3.269342 0.048561 165 107 71
0.865094 3.387766 0.355935 130 79 41
0.884820 3.714242 0.356202 86 30 16
0.884820 3.714242 0.356202 86 30 16
0.865109 3.378949 0.344709 140 80 42
0.884820 3.714242 0.356202 86 30 16
0.884820 3.714242 0.356202 86 30 16
0.862057 3.276709 0.058434 159 97 67
0.863469 3.275212 0.109407 136 75 41
0.884820 3.714242 0.356202 86 30 16
0.884820 3.714242 0.356202 86 30 16
0.884820 3.714242 0.356202 86 30 16
0.844247 3.509024 0.425358 103 44 11
0.839669 3.286636 0.011422 85 32 3
0.883691 3.530099 0.384107 85 23 1
0.884820 3.714242 0.356202 86 30 16
0.882691 3.538860 0.375901 83 33 3
0.884820 3.714242 0.356202 86 30 16
0.884820 3.714242 0.356202 86 30 16
0.884820 3.714242 0.356202 86 30 16
0.838560 3.284966 0.105227 80 27 10
0.857112 3.301665 0.341880 115 64 45
0.884820 3.714242 0.356202 86 30 16
0.858638 3.284802 0.115559 127 75 29
0.884820 3.714242 0.356202 86 30 16
0.884820 3.714242 0.356202 86 30 16
0.884820 3.714242 0.356202 86 30 16
0.902609 3.545145 0.420915 107 43 16
0.884820 3.714242 0.356202 86 30 16
0.884820 3.714242 0.356202 86 30 16
0.857366 3.254264 0.008208 171 106 82
0.884820 3.714242 0.356202 86 30 16
0.864384 3.264477 0.126149 131 74 41
0.862788 3.274168 0.321679 117 68 40
0.865924 3.281820 0.011226 159 97 66
0.884820 3.714242 0.356202 86 30 16
0.884820 3.714242 0.356202 86 30 16
0.865049 3.275453 0.136333 133 75 39
0.895256 3.553167 0.423831 91 39 25
0.884820 3.714242 0.356202 86 30 16
0.884820 3.714242 0.356202 86 30 16
0.855709 3.522393 0.422567 103 50 23
0.884820 3.714242 0.356202 86 30 16
0.884820 3.714242 0.356202 86 30 16
0.858858 3.494800 0.424595 108 42 10
0.884820 3.714242 0.356202 86 30 16
0.884820 3.714242 0.356202 86 30 16
0.866941 3.261728 0.004618 151 86 52
0.884820 3.714242 0.356202 86 30 16
0.884820 3.714242 0.356202 86 30 16
0.884820 3.714242 0.356202 86 30 16
0.884820 3.714242 0.356202 86 30 16
0.884820 3.714242 0.356202 86 30 16
0.884820 3.714242 0.356202 86 30 16
0.867569 3.275127 0.011748 157 96 46
0.884820 3.714242 0.356202 86 30 16
0.884820 3.714242 0.356202 86 30 16
0.857530 3.304333 0.349057 116 64 38
0.865517 3.277352 0.153828 127 75 39
0.884820 3.714242 0.356202 86 30 16
0.884820 3.714242 0.356202 86 30 16
0.884820 3.714242 0.356202 86 30 16
0.865726 3.402519 0.350993 111 67 38
0.841723 3.519721 0.424635 100 53 5
0.863994 3.375198 0.339642 120 78 48
0.884820 3.714242 0.356202 86 30 16
0.884820 3.714242 0.356202 86 30 16
0.875974 3.270644 0.035401 201 136 87
0.864919 3.274747 0.039330 187 126 83
0.884820 3.714242 0.356202 86 30 16
0.846635 3.283631 0.087032 113 62 13
0.884820 3.714242 0.356202 86 30 16
0.884820 3.714242 0.356202 86 30 16
0.860996 3.392206 0.328076 144 141 153
0.884820 3.714242 0.356202 86 30 16
0.884820 3.714242 0.356202 86 30 16
0.884820 3.714242 0.356202 86 30 16
0.862680 3.292426 0.381646 101 53 37
0.860638 3.283844 0.110700 135 83 39
0.876320 3.477707 0.350180 91 30 10
0.884820 3.714242 0.356202 86 30 16
0.884820 3.714242 0.356202 86 30 16
0.884820 3.714242 0.356202 86 30 16
0.865816 3.255376 0.067934 160 107 85
0.884820 3.714242 0.356202 86 30 16
0.863044 3.307268 0.380737 114 60 28
0.884820 3.714242 0.356202 86 30 16
0.884820 3.714242 0.356202 86 30 16
0.864956 3.360440 0.345937 126 74 42
0.884820 3.714242 0.356202 86 30 16
0.884820 3.714242 0.356202 86 30 16
0.884820 3.714242 0.356202 86 30 16
0.884820 3.714242 0.356202 86 30 16
0.884820 3.714242 0.356202 86 30 16
0.863321 3.282013 0.050395 158 105 63
0.862446 3.266863 0.092958 139 83 36
0.884820 3.714242 0.356202 86 30 16
0.898217 3.525453 0.404958 89 31 13
0.884820 3.714242 0.356202 86 30 16
0.884820 3.714242 0.356202 86 30 16
0.863771 3.264187 0.108925 130 77 38
0.864325 3.334239 0.374948 121 67 52
0.895263 3.493412 0.403889 88 26 1
0.865103 3.278381 0.069508 157 95 66
0.884820 3.714242 0.356202 86 30 16
0.899357 3.567036 0.414660 102 41 10
0.861927 3.338386 0.345597 133 75 58
0.884820 3.714242 0.356202 86 30 16
0.875476 3.450516 0.348120 97 40 7
0.861773 3.269298 0.103155 140 78 43
0.888836 3.353500 0.410172 146 88 62
0.872500 3.439609 0.355164 86 22 1
0.884820 3.714242 0.356202 86 30 16
0.884820 3.714242 0.356202 86 30 16
0.884820 3.714242 0.356202 86 30 16
0.865629 3.442743 0.334320 75 34 20
0.884820 3.714242 0.356202 86 30 16
0.866543 3.425789 0.344345 78 23 1
0.874323 3.285350 0.389944 109 62 37
0.884820 3.714242 0.356202 86 30 16
0.880774 3.520433 0.416991 113 52 22
0.884820 3.714242 0.356202 86 30 16
0.884820 3.714242 0.356202 86 30 16
0.893181 3.492650 0.422329 103 35 29
0.884820 3.714242 0.356202 86 30 16
0.884820 3.714242 0.356202 86 30 16
0.884820 3.714242 0.356202 86 30 16
0.892471 3.365196 0.405949 95 46 18
0.843531 3.520495 0.423439 104 53 14
0.884820 3.714242 0.356202 86 30 16
0.884820 3.714242 0.356202 86 30 16
0.884820 3.714242 0.356202 86 30 16
0.894887 3.527171 0.401224 83 29 8
0.884496 3.494929 0.392235 80 21 1