ply
format ascii 1.0
comment generated by downsample_and_prepare_room.mjs
element vertex 534
property float x
property float y
property float z
property uchar red
property uchar green
property uchar blue
end_header
2.162723 3.798652 0.312692 31 18 31
2.162723 3.798652 0.312692 31 18 31
2.162723 3.798652 0.312692 31 18 31
2.054399 3.642847 0.400795 50 25 5
2.097586 3.347573 0.375533 95 65 9
2.162723 3.798652 0.312692 31 18 31
2.162723 3.798652 0.312692 31 18 31
2.162723 3.798652 0.312692 31 18 31
2.162723 3.798652 0.312692 31 18 31
2.162723 3.798652 0.312692 31 18 31
2.162723 3.798652 0.312692 31 18 31
2.162723 3.798652 0.312692 31 18 31
2.162723 3.798652 0.312692 31 18 31
1.994807 3.628697 0.318595 4 1 20
2.008377 3.433210 0.395783 54 66 61
2.086624 3.459493 0.406046 1 12 66
2.162723 3.798652 0.312692 31 18 31
2.162723 3.798652 0.312692 31 18 31
2.162723 3.798652 0.312692 31 18 31
2.115478 3.630373 0.393019 4 16 50
2.007421 3.619685 0.247436 41 34 6
2.062114 3.583359 0.412396 2 18 54
2.162723 3.798652 0.312692 31 18 31
1.982257 3.633520 0.331272 4 2 16
2.162723 3.798652 0.312692 31 18 31
1.994155 3.621875 0.338414 6 4 23
2.162723 3.798652 0.312692 31 18 31
2.057837 3.383630 0.370583 81 71 46
2.101043 3.491148 0.400697 2 18 61
2.010409 3.538607 0.424311 12 58 106
2.162723 3.798652 0.312692 31 18 31
1.989985 3.628616 0.337973 4 2 18
2.162723 3.798652 0.312692 31 18 31
2.162723 3.798652 0.312692 31 18 31
2.162723 3.798652 0.312692 31 18 31
2.162723 3.798652 0.312692 31 18 31
1.997999 3.435487 0.374032 117 65 40
1.975887 3.594030 0.309139 77 60 43
2.064370 3.393070 0.405956 116 94 85
2.162723 3.798652 0.312692 31 18 31
2.007467 3.618218 0.293931 60 53 32
2.162723 3.798652 0.312692 31 18 31
1.979555 3.524492 0.426311 32 51 95
2.162723 3.798652 0.312692 31 18 31
1.971548 3.620346 0.400952 24 34 5
2.065103 3.496703 0.410536 1 19 67
2.091336 3.537140 0.402411 1 22 54
2.162723 3.798652 0.312692 31 18 31
1.997266 3.487582 0.422154 20 47 106
2.162723 3.798652 0.312692 31 18 31
1.986128 3.605733 0.257961 49 34 13
2.162723 3.798652 0.312692 31 18 31
1.993842 3.619049 0.305034 83 61 46
2.162723 3.798652 0.312692 31 18 31
2.053362 3.483254 0.413208 2 25 73
2.007040 3.549430 0.424203 21 45 89
1.994062 3.629306 0.289949 61 42 30
2.162723 3.798652 0.312692 31 18 31
2.062656 3.389186 0.428933 90 85 102
2.110837 3.636481 0.393550 2 14 47
2.064415 3.378792 0.370608 81 81 18
2.162723 3.798652 0.312692 31 18 31
2.162723 3.798652 0.312692 31 18 31
2.162723 3.798652 0.312692 31 18 31
2.162723 3.798652 0.312692 31 18 31
2.162723 3.798652 0.312692 31 18 31
2.162723 3.798652 0.312692 31 18 31
2.079728 3.472119 0.407647 1 21 66
2.007302 3.540388 0.423574 13 61 107
2.162723 3.798652 0.312692 31 18 31
2.061432 3.427817 0.411354 5 39 97
2.162723 3.798652 0.312692 31 18 31
2.171695 3.578230 0.369916 6 33 88
2.074060 3.456818 0.409642 1 21 69
2.162723 3.798652 0.312692 31 18 31
2.162723 3.798652 0.312692 31 18 31
1.979201 3.499535 0.425113 9 56 104
2.000448 3.494199 0.426242 18 56 110
2.162723 3.798652 0.312692 31 18 31
2.162723 3.798652 0.312692 31 18 31
2.162723 3.798652 0.312692 31 18 31
2.162723 3.798652 0.312692 31 18 31
2.162723 3.798652 0.312692 31 18 31
2.162723 3.798652 0.312692 31 18 31
2.162723 3.798652 0.312692 31 18 31
2.162723 3.798652 0.312692 31 18 31
2.095802 3.515961 0.403081 4 19 60
2.006524 3.602585 0.357886 4 5 25
1.978117 3.608622 0.310324 72 54 41
2.162723 3.798652 0.312692 31 18 31
2.162723 3.798652 0.312692 31 18 31
1.981541 3.621055 0.290792 62 44 31
2.162723 3.798652 0.312692 31 18 31
2.162723 3.798652 0.312692 31 18 31
1.985214 3.470905 0.418807 31 54 103
2.005027 3.613815 0.360126 5 3 22
2.162723 3.798652 0.312692 31 18 31
1.985840 3.509495 0.427577 17 51 114
1.983075 3.608267 0.294938 61 55 33
2.028305 3.443365 0.413173 14 51 112
2.162723 3.798652 0.312692 31 18 31
2.162723 3.798652 0.312692 31 18 31
2.064896 3.377589 0.375501 49 40 1
2.056701 3.653005 0.383817 37 8 3
2.162723 3.798652 0.312692 31 18 31
2.162723 3.798652 0.312692 31 18 31
1.986305 3.519607 0.427392 39 65 119
2.162723 3.798652 0.312692 31 18 31
1.977606 3.601214 0.315038 25 22 26
2.162723 3.798652 0.312692 31 18 31
2.162723 3.798652 0.312692 31 18 31
1.992880 3.595592 0.303694 54 53 31
2.156228 3.549600 0.376621 2 38 86
2.162723 3.798652 0.312692 31 18 31
2.057302 3.593013 0.410929 2 18 31
2.162723 3.798652 0.312692 31 18 31
2.093546 3.497624 0.403508 1 20 60
2.162723 3.798652 0.312692 31 18 31
1.975933 3.618622 0.279404 76 51 47
2.162723 3.798652 0.312692 31 18 31
1.978495 3.615758 0.353506 9 10 20
2.162723 3.798652 0.312692 31 18 31
2.103883 3.477351 0.400232 117 118 187
2.162723 3.798652 0.312692 31 18 31
2.162723 3.798652 0.312692 31 18 31
2.162723 3.798652 0.312692 31 18 31
1.992361 3.444762 0.375175 131 106 64
2.187926 3.827331 0.322142 29 15 31
1.996489 3.626530 0.356208 6 5 24
2.162723 3.798652 0.312692 31 18 31
2.052008 3.543797 0.414057 6 21 64
1.988438 3.630242 0.274946 48 34 15
2.048304 3.438527 0.413024 4 39 92
2.162723 3.798652 0.312692 31 18 31
2.162723 3.798652 0.312692 31 18 31
2.162723 3.798652 0.312692 31 18 31
2.049433 3.443030 0.414038 3 34 99
2.162723 3.798652 0.312692 31 18 31
2.162723 3.798652 0.312692 31 18 31
1.969247 3.489979 0.421632 27 60 101
2.005702 3.514748 0.425538 14 60 125
2.162723 3.798652 0.312692 31 18 31
2.209871 3.855114 0.310811 18 6 29
2.162723 3.798652 0.312692 31 18 31
1.977601 3.548411 0.414716 28 32 59
2.162723 3.798652 0.312692 31 18 31
2.162723 3.798652 0.312692 31 18 31
2.003815 3.613166 0.319831 5 3 21
2.047061 3.394008 0.374711 95 65 49
2.162723 3.798652 0.312692 31 18 31
2.162723 3.798652 0.312692 31 18 31
2.162723 3.798652 0.312692 31 18 31
2.062606 3.576390 0.410867 1 18 67
2.162723 3.798652 0.312692 31 18 31
2.101142 3.531855 0.400358 1 20 61
2.162723 3.798652 0.312692 31 18 31
2.113717 3.470177 0.399211 76 115 169
2.043251 3.436928 0.413169 16 52 100
2.052848 3.649746 0.385614 69 35 4
2.162723 3.798652 0.312692 31 18 31
1.979719 3.609610 0.260808 43 35 7
2.023920 3.493386 0.421671 9 50 107
2.162723 3.798652 0.312692 31 18 31
2.008487 3.621287 0.283939 52 43 22
2.162723 3.798652 0.312692 31 18 31
2.162723 3.798652 0.312692 31 18 31
2.079242 3.502800 0.407421 1 19 65
2.162723 3.798652 0.312692 31 18 31
2.004869 3.436026 0.396377 38 55 59
2.162723 3.798652 0.312692 31 18 31
2.080428 3.522892 0.406338 1 19 68
2.162723 3.798652 0.312692 31 18 31
2.162723 3.798652 0.312692 31 18 31
2.162723 3.798652 0.312692 31 18 31
2.015685 3.422836 0.381771 101 79 75
2.162723 3.798652 0.312692 31 18 31
2.142757 3.549707 0.384115 5 32 76
2.051016 3.532966 0.415405 4 23 70
1.981356 3.545342 0.417695 33 53 100
2.162723 3.798652 0.312692 31 18 31
1.979146 3.632191 0.339909 4 2 18
2.162723 3.798652 0.312692 31 18 31
2.084925 3.489979 0.404510 1 19 65
2.162723 3.798652 0.312692 31 18 31
2.162723 3.798652 0.312692 31 18 31
2.103678 3.482008 0.400322 42 42 109
2.162723 3.798652 0.312692 31 18 31
2.162723 3.798652 0.312692 31 18 31
2.162723 3.798652 0.312692 31 18 31
2.066550 3.650700 0.398103 1 3 1
2.162723 3.798652 0.312692 31 18 31
2.162723 3.798652 0.312692 31 18 31
2.162723 3.798652 0.312692 31 18 31
2.162723 3.798652 0.312692 31 18 31
2.069400 3.608307 0.405430 1 15 44
2.015933 3.605054 0.370842 2 3 35
2.015425 3.524159 0.424580 20 39 105
2.162723 3.798652 0.312692 31 18 31
2.162723 3.798652 0.312692 31 18 31
2.162723 3.798652 0.312692 31 18 31
2.162723 3.798652 0.312692 31 18 31
2.162723 3.798652 0.312692 31 18 31
2.162723 3.798652 0.312692 31 18 31
1.980938 3.614193 0.256675 41 36 6
2.162723 3.798652 0.312692 31 18 31
1.987384 3.620374 0.320463 3 1 20
2.162723 3.798652 0.312692 31 18 31
1.978507 3.469559 0.414381 34 48 90
2.110235 3.507478 0.396163 1 8 48
2.202399 3.844795 0.310189 37 20 33
2.162723 3.798652 0.312692 31 18 31
2.143092 3.503292 0.406942 3 6 47
2.162723 3.798652 0.312692 31 18 31
2.162723 3.798652 0.312692 31 18 31
2.086708 3.532985 0.404967 1 24 55
1.972099 3.510712 0.426811 27 60 102
1.978785 3.615021 0.280139 83 61 46
2.162723 3.798652 0.312692 31 18 31
2.162723 3.798652 0.312692 31 18 31
2.162723 3.798652 0.312692 31 18 31
2.162723 3.798652 0.312692 31 18 31
2.005608 3.520410 0.425767 21 64 119
2.162723 3.798652 0.312692 31 18 31
2.062243 3.612532 0.407495 3 11 55
2.162723 3.798652 0.312692 31 18 31
1.967560 3.538779 0.349534 27 37 56
2.162723 3.798652 0.312692 31 18 31
2.199172 3.551746 0.361194 7 23 56
2.116033 3.651487 0.391350 2 14 47
2.162723 3.798652 0.312692 31 18 31
2.086113 3.547465 0.405125 1 18 50
2.162723 3.798652 0.312692 31 18 31
2.162723 3.798652 0.312692 31 18 31
1.993821 3.449925 0.406658 32 52 90
2.162723 3.798652 0.312692 31 18 31
2.051399 3.477265 0.413711 1 28 71
2.180040 3.809462 0.344965 12 7 26
1.984173 3.451020 0.389401 80 65 65
2.162723 3.798652 0.312692 31 18 31
2.162723 3.798652 0.312692 31 18 31
2.022432 3.600756 0.258259 46 39 17
2.034426 3.458392 0.416575 6 27 91
2.039896 3.508162 0.418051 3 24 80
2.038513 3.632612 0.375329 2 9 36
2.092200 3.527064 0.402438 2 24 53
2.039278 3.512124 0.418571 4 27 71
1.988349 3.522242 0.427363 37 58 114
1.990064 3.515659 0.427116 20 49 108
2.162723 3.798652 0.312692 31 18 31
2.044661 3.488452 0.416878 2 28 75
2.162723 3.798652 0.312692 31 18 31
1.987751 3.629879 0.331899 4 1 20
2.162723 3.798652 0.312692 31 18 31
2.011464 3.528708 0.425384 14 48 103
2.066192 3.406163 0.409873 45 41 51
2.041715 3.433212 0.412000 25 61 102
2.083341 3.657454 0.399157 1 4 19
2.162723 3.798652 0.312692 31 18 31
2.162723 3.798652 0.312692 31 18 31
2.162723 3.798652 0.312692 31 18 31
2.008289 3.432431 0.370942 108 78 67
2.064211 3.457589 0.411315 1 27 73
2.162723 3.798652 0.312692 31 18 31
2.162723 3.798652 0.312692 31 18 31
2.162723 3.798652 0.312692 31 18 31
1.985765 3.591982 0.340338 5 3 20
2.001810 3.623500 0.344877 5 2 21
2.162723 3.798652 0.312692 31 18 31
2.032852 3.598990 0.274199 47 44 19
2.065236 3.387190 0.435615 99 125 157
2.167468 3.573935 0.371175 5 39 81
1.970582 3.471583 0.410526 41 57 86
2.025464 3.528911 0.421682 4 30 72
2.162723 3.798652 0.312692 31 18 31
2.028487 3.415376 0.395675 55 65 67
2.162723 3.798652 0.312692 31 18 31
2.004292 3.449454 0.410763 52 76 114
2.162723 3.798652 0.312692 31 18 31
2.018853 3.479311 0.421309 30 51 106
1.999751 3.624734 0.349626 6 4 23
2.162723 3.798652 0.312692 31 18 31
2.162723 3.798652 0.312692 31 18 31
2.162723 3.798652 0.312692 31 18 31
2.162723 3.798652 0.312692 31 18 31
2.054609 3.489152 0.414628 2 25 71
2.054205 3.633587 0.409183 31 23 33
2.162723 3.798652 0.312692 31 18 31
2.062641 3.357806 0.415723 111 92 50
2.027349 3.421079 0.399300 18 31 49
2.162723 3.798652 0.312692 31 18 31
2.162723 3.798652 0.312692 31 18 31
2.162723 3.798652 0.312692 31 18 31
2.065189 3.387917 0.419273 69 65 62
2.162723 3.798652 0.312692 31 18 31
2.162723 3.798652 0.312692 31 18 31
2.162723 3.798652 0.312692 31 18 31
2.057487 3.387220 0.386336 99 64 54
2.162723 3.798652 0.312692 31 18 31
2.116366 3.536130 0.394807 2 13 54
2.162723 3.798652 0.312692 31 18 31
2.191029 3.828793 0.327293 22 11 30
2.162723 3.798652 0.312692 31 18 31
2.058361 3.622401 0.407904 2 21 53
2.162723 3.798652 0.312692 31 18 31
2.162723 3.798652 0.312692 31 18 31
2.162723 3.798652 0.312692 31 18 31
2.162723 3.798652 0.312692 31 18 31
2.162723 3.798652 0.312692 31 18 31
2.162723 3.798652 0.312692 31 18 31
2.162723 3.798652 0.312692 31 18 31
1.995260 3.503965 0.425594 7 44 93
2.162723 3.798652 0.312692 31 18 31
1.967062 3.542494 0.410237 19 41 75
1.986507 3.625534 0.360209 5 5 15
2.162723 3.798652 0.312692 31 18 31
2.162723 3.798652 0.312692 31 18 31
2.162723 3.798652 0.312692 31 18 31
2.130904 3.743656 0.356731 31 18 10
2.162723 3.798652 0.312692 31 18 31
1.969709 3.480088 0.418268 30 54 93
1.970292 3.535588 0.420028 19 33 64
2.180096 3.816495 0.327067 22 11 30
2.162723 3.798652 0.312692 31 18 31
2.162723 3.798652 0.312692 31 18 31
2.162723 3.798652 0.312692 31 18 31
2.007602 3.610892 0.259855 44 35 7
2.013655 3.615482 0.266275 44 36 11
2.003097 3.553958 0.422247 21 38 74
2.162723 3.798652 0.312692 31 18 31
1.996891 3.552408 0.423452 29 40 66
2.162723 3.798652 0.312692 31 18 31
2.162723 3.798652 0.312692 31 18 31
1.999447 3.505839 0.425673 23 55 118
1.990480 3.625160 0.289881 55 39 25
2.083183 3.626833 0.402527 4 14 52
2.162723 3.798652 0.312692 31 18 31
2.162723 3.798652 0.312692 31 18 31
2.033435 3.406520 0.381005 45 45 26
2.162723 3.798652 0.312692 31 18 31
2.162723 3.798652 0.312692 31 18 31
1.997024 3.555406 0.419189 21 45 78
1.968882 3.475451 0.409894 44 63 93
2.162723 3.798652 0.312692 31 18 31
1.992583 3.607842 0.341827 4 2 20
2.162723 3.798652 0.312692 31 18 31
1.993320 3.626598 0.308643 23 15 26
2.088072 3.562086 0.404534 2 18 52
1.985296 3.489957 0.424330 19 51 104
2.035187 3.405520 0.381483 39 34 21
2.162723 3.798652 0.312692 31 18 31
2.096697 3.651707 0.396468 1 10 40
2.212100 3.856294 0.293349 19 6 31
2.162723 3.798652 0.312692 31 18 31
2.162723 3.798652 0.312692 31 18 31
2.005875 3.509789 0.425686 13 51 126
2.162723 3.798652 0.312692 31 18 31
2.050824 3.503262 0.413814 3 22 76
2.111266 3.472597 0.398863 75 94 161
1.999271 3.619613 0.266675 43 34 7
2.162723 3.798652 0.312692 31 18 31
2.028874 3.421858 0.401586 40 37 56
1.997954 3.591799 0.295698 48 47 21
2.130942 3.510403 0.391774 3 5 45
2.162723 3.798652 0.312692 31 18 31
2.037382 3.515752 0.419801 5 29 76
2.082816 3.635830 0.400526 2 13 58
2.162723 3.798652 0.312692 31 18 31
2.058252 3.661135 0.354298 35 13 5
2.162723 3.798652 0.312692 31 18 31
2.098474 3.706854 0.360138 29 15 10
2.140962 3.519773 0.386021 2 30 84
2.162723 3.798652 0.312692 31 18 31
2.044518 3.454036 0.415679 1 26 90
1.978075 3.460222 0.368797 126 96 59
2.029331 3.416838 0.364133 93 77 62
2.162723 3.798652 0.312692 31 18 31
2.021017 3.530197 0.423155 3 31 76
2.162723 3.798652 0.312692 31 18 31
2.073756 3.647612 0.400696 1 3 23
2.054717 3.616821 0.409792 1 14 57
2.162723 3.798652 0.312692 31 18 31
2.162723 3.798652 0.312692 31 18 31
2.162723 3.798652 0.312692 31 18 31
2.057702 3.407301 0.405075 47 40 51
2.036785 3.408852 0.396286 72 73 54
2.162723 3.798652 0.312692 31 18 31
2.071499 3.636343 0.402657 2 16 39
2.162723 3.798652 0.312692 31 18 31
2.162723 3.798652 0.312692 31 18 31
2.043559 3.402282 0.390458 98 62 52
1.988808 3.475063 0.421147 20 52 105
2.162723 3.798652 0.312692 31 18 31
2.032021 3.528498 0.419903 3 28 66
2.009279 3.489035 0.423544 14 40 107
2.009617 3.603326 0.402127 18 16 50
1.983115 3.609219 0.373471 9 9 18
2.052325 3.614367 0.409869 1 14 60
2.162723 3.798652 0.312692 31 18 31
2.162723 3.798652 0.312692 31 18 31
2.162723 3.798652 0.312692 31 18 31
2.051210 3.519283 0.414814 4 26 70
2.066867 3.572911 0.410260 1 22 54
2.162723 3.798652 0.312692 31 18 31
2.162723 3.798652 0.312692 31 18 31
2.032928 3.448603 0.414379 7 44 95
2.162723 3.798652 0.312692 31 18 31
2.162723 3.798652 0.312692 31 18 31
2.028894 3.498600 0.420390 9 31 86
2.061930 3.542129 0.411077 2 22 62
2.162723 3.798652 0.312692 31 18 31
2.162723 3.798652 0.312692 31 18 31
2.162723 3.798652 0.312692 31 18 31
2.041970 3.400428 0.380034 51 43 40
2.036449 3.523743 0.418942 8 35 74
2.115334 3.500897 0.395390 2 7 50
2.162723 3.798652 0.312692 31 18 31
2.142286 3.544768 0.383321 7 36 83
2.162723 3.798652 0.312692 31 18 31
2.162723 3.798652 0.312692 31 18 31
2.162723 3.798652 0.312692 31 18 31
1.980323 3.608791 0.271546 52 35 18
2.018064 3.559102 0.422519 4 23 80
2.162723 3.798652 0.312692 31 18 31
1.990204 3.614913 0.296187 75 59 42
2.162723 3.798652 0.312692 31 18 31
2.162723 3.798652 0.312692 31 18 31
2.162723 3.798652 0.312692 31 18 31
2.080609 3.622615 0.403296 1 11 54
2.162723 3.798652 0.312692 31 18 31
2.162723 3.798652 0.312692 31 18 31
2.010362 3.524531 0.425181 21 47 108
2.162723 3.798652 0.312692 31 18 31
1.988860 3.629533 0.345393 4 2 20
2.054387 3.447659 0.414733 1 28 92
1.989008 3.469944 0.418060 20 52 104
2.162723 3.798652 0.312692 31 18 31
2.162723 3.798652 0.312692 31 18 31
2.005486 3.616693 0.356698 6 4 23
2.098177 3.642487 0.396859 1 13 45
2.162723 3.798652 0.312692 31 18 31
2.162723 3.798652 0.312692 31 18 31
2.057370 3.388263 0.390670 87 56 42
2.162723 3.798652 0.312692 31 18 31
2.162723 3.798652 0.312692 31 18 31
2.084169 3.662021 0.399299 1 4 21
2.162723 3.798652 0.312692 31 18 31
2.162723 3.798652 0.312692 31 18 31
1.969965 3.493564 0.423334 26 59 105
2.162723 3.798652 0.312692 31 18 31
2.162723 3.798652 0.312692 31 18 31
2.162723 3.798652 0.312692 31 18 31
2.162723 3.798652 0.312692 31 18 31
2.162723 3.798652 0.312692 31 18 31
2.162723 3.798652 0.312692 31 18 31
2.004951 3.505120 0.424877 32 60 127
2.162723 3.798652 0.312692 31 18 31
2.162723 3.798652 0.312692 31 18 31
2.000482 3.534038 0.424076 26 70 126
1.996678 3.595581 0.325558 4 2 20
2.162723 3.798652 0.312692 31 18 31
2.162723 3.798652 0.312692 31 18 31
2.162723 3.798652 0.312692 31 18 31
1.984294 3.516036 0.427950 32 60 116
2.039419 3.405298 0.361689 114 95 63
2.058441 3.447026 0.414367 2 34 87
2.162723 3.798652 0.312692 31 18 31
2.162723 3.798652 0.312692 31 18 31
2.027352 3.555481 0.421197 6 28 79
2.025269 3.524356 0.421772 4 29 79
2.162723 3.798652 0.312692 31 18 31
2.037224 3.424417 0.406758 41 51 88
2.162723 3.798652 0.312692 31 18 31
2.162723 3.798652 0.312692 31 18 31
2.016777 3.539296 0.424765 7 30 90
2.162723 3.798652 0.312692 31 18 31
2.162723 3.798652 0.312692 31 18 31
2.162723 3.798652 0.312692 31 18 31
1.999312 3.600716 0.373298 3 2 25
1.988616 3.596443 0.283268 48 46 21
2.070149 3.657335 0.398474 36 25 9
2.162723 3.798652 0.312692 31 18 31
2.162723 3.798652 0.312692 31 18 31
2.162723 3.798652 0.312692 31 18 31
2.019715 3.490361 0.421069 10 48 107
2.162723 3.798652 0.312692 31 18 31
2.000774 3.614297 0.361707 6 2 22
2.162723 3.798652 0.312692 31 18 31
2.162723 3.798652 0.312692 31 18 31
2.012892 3.435032 0.400309 62 70 83
2.162723 3.798652 0.312692 31 18 31
2.162723 3.798652 0.312692 31 18 31
2.162723 3.798652 0.312692 31 18 31
2.162723 3.798652 0.312692 31 18 31
2.162723 3.798652 0.312692 31 18 31
2.038823 3.476996 0.416611 5 28 90
1.965215 3.467792 0.398571 35 44 62
2.162723 3.798652 0.312692 31 18 31
2.104107 3.461964 0.402744 49 84 160
2.162723 3.798652 0.312692 31 18 31
2.162723 3.798652 0.312692 31 18 31
2.065115 3.508397 0.411031 5 26 66
2.216374 3.863315 0.308797 1 6 46
2.130740 3.514578 0.390564 3 6 45
2.050152 3.473883 0.414476 2 32 74
2.162723 3.798652 0.312692 31 18 31
2.074455 3.623818 0.404728 1 14 46
1.974285 3.456847 0.380610 92 75 63
2.162723 3.798652 0.312692 31 18 31
2.185228 3.825374 0.315828 36 21 32
2.058799 3.481274 0.412692 1 24 67
1.981163 3.630784 0.395390 86 73 84
2.042792 3.638488 0.369522 3 5 21
2.162723 3.798652 0.312692 31 18 31
2.162723 3.798652 0.312692 31 18 31
2.162723 3.798652 0.312692 31 18 31
2.066737 3.567478 0.411156 1 23 52
2.162723 3.798652 0.312692 31 18 31
1.989437 3.510766 0.428333 16 51 106
1.991112 3.594021 0.375713 10 10 19
2.162723 3.798652 0.312692 31 18 31
2.076530 3.566476 0.408226 1 19 58
2.162723 3.798652 0.312692 31 18 31
2.162723 3.798652 0.312692 31 18 31
2.075809 3.507377 0.408616 1 22 66
2.162723 3.798652 0.312692 31 18 31
2.162723 3.798652 0.312692 31 18 31
2.162723 3.798652 0.312692 31 18 31
1.982945 3.630709 0.388574 86 73 84
2.066387 3.382324 0.405578 130 103 61
2.162723 3.798652 0.312692 31 18 31
2.162723 3.798652 0.312692 31 18 31
2.162723 3.798652 0.312692 31 18 31
2.104420 3.471716 0.401660 65 101 154
2.121513 3.495994 0.395487 1 3 45