ply
format ascii 1.0
comment generated by downsample_and_prepare_room.mjs
element vertex 1122
property float x
property float y
property float z
property uchar red
property uchar green
property uchar blue
end_header
0.571796 1.331810 1.063943 22 33 59
0.850678 0.983540 1.059883 17 9 17
0.596848 1.302645 1.244933 23 33 52
0.743790 1.121583 1.220596 12 17 34
0.671940 1.207600 1.174556 16 25 42
0.775484 1.069497 0.959945 8 10 20
0.743790 1.121583 1.220596 12 17 34
0.743790 1.121583 1.220596 12 17 34
0.634068 1.255059 1.200703 22 29 54
0.743790 1.121583 1.220596 12 17 34
0.659827 1.223450 1.160168 18 27 53
0.743790 1.121583 1.220596 12 17 34
0.743790 1.121583 1.220596 12 17 34
0.835058 1.007192 1.115194 16 9 8
0.653740 1.224055 0.959632 14 20 44
0.647959 1.244356 1.314629 25 32 52
0.807176 1.033202 1.014920 9 8 31
0.907348 0.902264 1.006060 26 18 20
0.598425 1.295338 1.099106 26 29 56
0.743790 1.121583 1.220596 12 17 34
0.623690 1.264583 1.039145 16 27 53
0.755363 1.097297 1.039451 5 5 21
0.743790 1.121583 1.220596 12 17 34
0.646222 1.232394 0.969901 13 20 42
0.778847 1.070255 1.000628 6 8 19
0.743790 1.121583 1.220596 12 17 34
0.697884 1.176562 1.224065 17 25 47
0.743790 1.121583 1.220596 12 17 34
0.616590 1.279838 1.220608 26 34 54
0.675573 1.207031 1.185304 21 28 45
0.743790 1.121583 1.220596 12 17 34
0.729220 1.136700 1.139990 11 16 34
0.807593 1.038589 1.124306 6 5 9
0.858743 0.971874 1.045749 19 10 15
0.771626 1.085150 1.145578 7 4 28
0.744014 1.117525 1.130531 6 7 20
0.564593 1.357262 1.214844 30 32 46
0.743790 1.121583 1.220596 12 17 34
0.791988 1.045771 0.960027 3 4 13
0.743790 1.121583 1.220596 12 17 34
0.694536 1.178289 1.115791 16 19 39
0.846823 0.978494 1.000438 11 10 23
0.687183 1.187753 1.134613 16 27 51
0.743790 1.121583 1.220596 12 17 34
0.570966 1.393355 1.240092 71 79 84
0.840144 0.993931 0.975299 10 10 25
0.743790 1.121583 1.220596 12 17 34
0.743790 1.121583 1.220596 12 17 34
0.782356 1.074147 1.128617 4 4 32
0.656335 1.230150 1.165592 18 28 52
0.815181 1.030120 1.070406 6 8 17
0.733567 1.130326 1.125532 6 15 40
0.743790 1.121583 1.220596 12 17 34
0.838426 0.993348 1.130722 15 7 11
0.693073 1.165196 0.974899 9 13 38
0.743790 1.121583 1.220596 12 17 34
0.751519 1.111122 1.150415 9 10 14
0.743790 1.121583 1.220596 12 17 34
0.743790 1.121583 1.220596 12 17 34
0.743790 1.121583 1.220596 12 17 34
0.743790 1.121583 1.220596 12 17 34
0.920044 0.896448 1.084800 23 13 13
0.743790 1.121583 1.220596 12 17 34
0.743790 1.121583 1.220596 12 17 34
0.674566 1.203985 1.075231 12 23 44
0.718947 1.156792 1.216119 13 23 44
0.887285 0.937416 1.078903 25 12 18
0.743790 1.121583 1.220596 12 17 34
0.743790 1.121583 1.220596 12 17 34
0.743790 1.121583 1.220596 12 17 34
0.561788 1.384981 1.159078 18 15 33
0.698639 1.181769 1.231458 18 23 46
0.875898 0.953154 1.165418 15 6 10
0.612843 1.283474 1.112805 22 34 55
0.814982 1.016457 0.970302 8 7 21
0.743790 1.121583 1.220596 12 17 34
0.552849 1.366940 1.099855 9 16 17
0.895708 0.920824 1.119769 21 9 9
0.868077 0.961523 1.151293 43 14 21
0.743790 1.121583 1.220596 12 17 34
0.694614 1.172559 1.024944 11 16 39
0.743790 1.121583 1.220596 12 17 34
0.844359 0.988501 0.989884 12 10 24
0.743790 1.121583 1.220596 12 17 34
0.743790 1.121583 1.220596 12 17 34
0.661992 1.213636 0.990175 10 20 43
0.856011 0.977693 1.155177 18 5 12
0.737177 1.126321 1.209472 15 16 34
0.743790 1.121583 1.220596 12 17 34
0.746875 1.106620 0.959713 7 10 22
0.843921 0.994027 1.055069 11 7 18
0.700884 1.169359 1.185839 18 24 43
0.743790 1.121583 1.220596 12 17 34
0.743790 1.121583 1.220596 12 17 34
0.596248 1.301531 1.150520 20 30 60
0.743790 1.121583 1.220596 12 17 34
0.743790 1.121583 1.220596 12 17 34
0.743790 1.121583 1.220596 12 17 34
0.872293 0.948021 1.069460 26 15 16
0.743790 1.121583 1.220596 12 17 34
0.557105 1.356317 1.119061 8 14 37
0.664069 1.224716 1.214883 21 27 52
0.743790 1.121583 1.220596 12 17 34
0.743790 1.121583 1.220596 12 17 34
0.589902 1.301368 1.080420 17 31 60
0.729779 1.133096 1.134723 7 16 38
0.743790 1.121583 1.220596 12 17 34
0.743790 1.121583 1.220596 12 17 34
0.771316 1.080858 0.970556 7 10 21
0.859326 0.974334 1.109740 25 11 17
0.759035 1.100415 1.214230 2 2 16
0.568513 1.345663 1.189489 19 25 42
0.669676 1.213908 1.254462 23 29 49
0.841053 0.995275 1.104702 16 6 9
0.717699 1.153191 1.240221 15 23 46
0.576179 1.326183 1.044775 19 34 55
0.743790 1.121583 1.220596 12 17 34
0.642886 1.239568 1.040867 18 25 49
0.743790 1.121583 1.220596 12 17 34
0.690383 1.192956 1.215135 17 23 51
0.743790 1.121583 1.220596 12 17 34
0.664264 1.219823 1.160718 19 30 51
0.779450 1.073654 1.037857 8 9 33
0.743790 1.121583 1.220596 12 17 34
0.910748 0.900793 0.995912 24 19 20
0.743790 1.121583 1.220596 12 17 34
0.725417 1.141479 1.194501 14 24 42
0.560292 1.386575 1.025115 9 17 60
0.743790 1.121583 1.220596 12 17 34
0.795699 1.045305 0.989979 5 7 27
0.743790 1.121583 1.220596 12 17 34
0.882172 0.942048 1.074979 24 12 16
0.700661 1.167455 0.960469 12 17 33
0.743790 1.121583 1.220596 12 17 34
0.743790 1.121583 1.220596 12 17 34
0.670296 1.203466 0.970298 7 17 43
0.743790 1.121583 1.220596 12 17 34
0.759969 1.099504 1.130335 6 3 26
0.742004 1.121056 1.025760 8 11 32
0.663712 1.214500 1.065506 14 24 47
0.766261 1.095273 1.180640 6 4 21
0.743790 1.121583 1.220596 12 17 34
0.822193 1.006100 0.968183 5 6 26
0.743790 1.121583 1.220596 12 17 34
0.728114 1.136369 1.059415 10 16 32
0.653489 1.224404 1.000280 10 23 47
0.743790 1.121583 1.220596 12 17 34
0.723956 1.142082 1.244938 15 19 46
0.662698 1.216220 1.125377 16 24 51
0.743790 1.121583 1.220596 12 17 34
0.563255 1.348606 1.146139 15 25 49
0.581094 1.311056 0.995349 17 30 58
0.924188 0.891195 1.119714 17 11 16
0.928032 0.883870 1.033601 22 13 19
0.696858 1.177113 1.159633 15 20 48
0.743790 1.121583 1.220596 12 17 34
0.743790 1.121583 1.220596 12 17 34
0.661176 1.222411 1.139882 21 30 45
0.684456 1.201968 0.948589 5 14 37
0.566879 1.397110 1.178191 106 110 109
0.743790 1.121583 1.220596 12 17 34
0.871987 0.952191 1.079185 28 14 17
0.602645 1.299380 1.241021 22 33 48
0.794994 1.100841 0.926555 7 8 16
0.743790 1.121583 1.220596 12 17 34
0.743790 1.121583 1.220596 12 17 34
0.692400 1.187639 1.215211 13 28 49
0.743790 1.121583 1.220596 12 17 34
0.778143 1.076156 1.229509 10 12 22
0.789813 1.057255 1.137805 4 5 30
0.652809 1.228899 1.055968 13 25 51
0.743790 1.121583 1.220596 12 17 34
0.834857 0.997152 1.014482 10 9 28
0.718204 1.147999 1.074748 14 25 31
0.743790 1.121583 1.220596 12 17 34
0.874306 0.943451 0.994978 19 16 24
0.696466 1.174588 1.125554 19 25 44
0.823995 1.014434 1.090239 10 5 13
0.743790 1.121583 1.220596 12 17 34
0.743790 1.121583 1.220596 12 17 34
0.743790 1.121583 1.220596 12 17 34
0.749180 1.113431 1.144771 4 5 14
0.743790 1.121583 1.220596 12 17 34
0.743790 1.121583 1.220596 12 17 34
0.766130 1.079892 1.029567 6 4 27
0.769102 1.085952 1.089705 5 4 32
0.743790 1.121583 1.220596 12 17 34
0.658216 1.215810 1.100689 16 26 52
0.788072 1.059168 1.064248 9 9 34
0.743790 1.121583 1.220596 12 17 34
0.741099 1.136618 0.940605 8 8 27
0.639806 1.249596 1.190216 18 24 56
0.743790 1.121583 1.220596 12 17 34
0.743790 1.121583 1.220596 12 17 34
0.777661 1.076271 1.120292 8 5 32
0.750688 1.111502 1.069936 4 5 20
0.743833 1.122100 0.946519 7 11 28
0.708167 1.160031 1.085222 11 15 44
0.892013 0.926157 1.110260 63 27 33
0.743790 1.121583 1.220596 12 17 34
0.743790 1.121583 1.220596 12 17 34
0.743790 1.121583 1.220596 12 17 34
0.743790 1.121583 1.220596 12 17 34
0.743790 1.121583 1.220596 12 17 34
0.743790 1.121583 1.220596 12 17 34
0.743790 1.121583 1.220596 12 17 34
0.579512 1.316837 1.135200 22 33 55
0.743790 1.121583 1.220596 12 17 34
0.754937 1.101098 1.055475 7 7 20
0.743790 1.121583 1.220596 12 17 34
0.976407 0.823707 1.139607 9 9 17
0.686280 1.188385 1.074216 12 19 45
0.880186 0.942877 1.129239 23 11 13
0.743790 1.121583 1.220596 12 17 34
0.605916 1.291179 1.200362 19 30 51
0.743790 1.121583 1.220596 12 17 34
0.743790 1.121583 1.220596 12 17 34
0.662354 1.213815 1.025549 17 28 40
0.743790 1.121583 1.220596 12 17 34
0.980440 0.811233 1.131862 9 8 17
0.567830 1.390084 1.138005 28 47 29
0.786394 1.065862 1.141043 7 6 27
0.844708 0.992422 1.115064 20 6 10
0.881507 0.938102 1.160924 14 4 10
0.796727 1.040695 0.980597 5 7 25
0.743790 1.121583 1.220596 12 17 34
0.743790 1.121583 1.220596 12 17 34
0.711222 1.172039 0.944936 9 13 36
0.553258 1.359927 1.056775 14 14 37
0.854321 0.973846 1.029706 12 9 15
0.743790 1.121583 1.220596 12 17 34
0.743790 1.121583 1.220596 12 17 34
0.743790 1.121583 1.220596 12 17 34
0.743790 1.121583 1.220596 12 17 34
0.602486 1.298601 1.139063 16 29 52
0.756482 1.099770 1.125038 6 3 25
0.743790 1.121583 1.220596 12 17 34
0.743790 1.121583 1.220596 12 17 34
0.703668 1.175470 1.225799 16 24 47
0.743790 1.121583 1.220596 12 17 34
0.743790 1.121583 1.220596 12 17 34
0.803770 1.035497 1.024936 10 11 33
0.699575 1.168097 1.207537 16 21 49
0.938326 0.869337 1.109756 16 10 16
0.743790 1.121583 1.220596 12 17 34
0.753316 1.101804 0.973756 8 11 17
0.743790 1.121583 1.220596 12 17 34
0.743790 1.121583 1.220596 12 17 34
0.743790 1.121583 1.220596 12 17 34
0.874121 0.951525 1.049440 25 18 14
0.743790 1.121583 1.220596 12 17 34
0.743790 1.121583 1.220596 12 17 34
0.743790 1.121583 1.220596 12 17 34
0.608841 1.280388 1.144773 24 35 52
0.743790 1.121583 1.220596 12 17 34
0.743790 1.121583 1.220596 12 17 34
0.743790 1.121583 1.220596 12 17 34
0.748805 1.105456 0.990697 7 11 20
0.743790 1.121583 1.220596 12 17 34
0.785775 1.050636 0.959137 5 6 13
0.676721 1.203039 1.150171 16 23 51
0.629908 1.264871 1.215340 19 29 53
0.654268 1.224333 1.065300 15 24 52
0.743790 1.121583 1.220596 12 17 34
0.771174 1.077333 1.095479 8 5 32
0.734220 1.126687 1.045386 13 15 35
0.576256 1.327271 1.234751 23 27 47
0.806118 1.037143 1.029858 10 11 33
0.603769 1.295122 1.245284 21 31 50
0.565348 1.396793 1.156256 106 101 111
0.827804 1.008663 1.021088 8 9 30
0.743790 1.121583 1.220596 12 17 34
0.743790 1.121583 1.220596 12 17 34
0.743790 1.121583 1.220596 12 17 34
0.743790 1.121583 1.220596 12 17 34
0.903797 0.916581 1.114972 62 31 32
0.783719 1.062598 1.008438 8 8 25
0.743790 1.121583 1.220596 12 17 34
0.743790 1.121583 1.220596 12 17 34
0.602774 1.296248 1.250091 19 35 53
0.746635 1.101990 0.984330 9 13 17
0.773138 1.078447 1.035662 5 6 30
0.743790 1.121583 1.220596 12 17 34
0.743790 1.121583 1.220596 12 17 34
0.634313 1.259785 1.220457 19 30 52
0.708061 1.158460 0.999994 8 14 39
0.743790 1.121583 1.220596 12 17 34
0.743790 1.121583 1.220596 12 17 34
0.613508 1.275497 1.054868 16 30 56
0.624259 1.252167 0.972379 13 25 52
0.794052 1.054434 1.019897 10 11 30
0.565908 1.349246 1.240982 28 37 50
0.676722 1.202952 1.159970 16 22 50
0.818936 1.019528 1.055140 7 5 23
0.564538 1.352264 1.239694 29 36 49
0.743790 1.121583 1.220596 12 17 34
0.869642 0.957620 1.061043 27 14 19
0.677971 1.204159 1.219876 21 30 51
0.722824 1.152077 1.165061 16 21 39
0.677151 1.203220 1.090481 16 28 43
0.617588 1.274307 1.135533 18 27 60
0.886091 0.932446 1.082504 25 11 11
0.743790 1.121583 1.220596 12 17 34
0.743790 1.121583 1.220596 12 17 34
0.815317 1.018236 0.969255 8 7 21
0.791084 1.096124 0.936504 5 9 19
0.743790 1.121583 1.220596 12 17 34
0.790455 1.055269 1.119677 6 4 25
0.743790 1.121583 1.220596 12 17 34
0.743790 1.121583 1.220596 12 17 34
0.743790 1.121583 1.220596 12 17 34
0.743790 1.121583 1.220596 12 17 34
0.743790 1.121583 1.220596 12 17 34
0.781202 1.073527 1.060594 11 8 37
0.563597 1.346863 1.175106 16 26 46
0.743790 1.121583 1.220596 12 17 34
0.930369 0.881193 1.044695 21 13 15
0.743790 1.121583 1.220596 12 17 34
0.743790 1.121583 1.220596 12 17 34
0.708004 1.153392 1.050834 10 16 42
0.743790 1.121583 1.220596 12 17 34
0.743790 1.121583 1.220596 12 17 34
0.743790 1.121583 1.220596 12 17 34
0.932359 0.875829 1.044690 21 13 15
0.743790 1.121583 1.220596 12 17 34
0.743790 1.121583 1.220596 12 17 34
0.743790 1.121583 1.220596 12 17 34
0.743790 1.121583 1.220596 12 17 34
0.739953 1.120977 1.050681 8 12 32
0.743790 1.121583 1.220596 12 17 34
0.743790 1.121583 1.220596 12 17 34
0.555660 1.354339 1.134089 13 18 41
0.743790 1.121583 1.220596 12 17 34
0.802563 1.044928 1.191137 6 7 18
0.743790 1.121583 1.220596 12 17 34
0.743790 1.121583 1.220596 12 17 34
0.743790 1.121583 1.220596 12 17 34
0.686761 1.192397 1.210068 13 21 46
0.743790 1.121583 1.220596 12 17 34
0.909391 0.900813 1.090375 25 13 13
0.743790 1.121583 1.220596 12 17 34
0.743790 1.121583 1.220596 12 17 34
0.743790 1.121583 1.220596 12 17 34
0.743790 1.121583 1.220596 12 17 34
0.743790 1.121583 1.220596 12 17 34
0.767822 1.089847 1.195364 5 3 20
0.817045 1.014895 1.040351 9 7 22
0.835150 0.995431 0.990654 9 9 28
0.743790 1.121583 1.220596 12 17 34
0.743790 1.121583 1.220596 12 17 34
0.595574 1.299744 1.095664 31 35 59
0.700487 1.159890 1.004161 11 14 37
0.743790 1.121583 1.220596 12 17 34
0.804750 1.079008 0.935144 10 12 13
0.740071 1.125694 1.149336 12 17 34
0.743790 1.121583 1.220596 12 17 34
0.743790 1.121583 1.220596 12 17 34
0.672671 1.213437 1.235740 24 30 57
0.630984 1.260294 1.314402 25 32 51
0.743790 1.121583 1.220596 12 17 34
0.743790 1.121583 1.220596 12 17 34
0.562567 1.390058 1.039736 21 39 38
0.713979 1.146984 0.975433 5 13 33
0.743790 1.121583 1.220596 12 17 34
0.743790 1.121583 1.220596 12 17 34
0.748496 1.112154 1.024862 7 9 30
0.743790 1.121583 1.220596 12 17 34
0.743790 1.121583 1.220596 12 17 34
0.936735 0.870541 1.079758 18 10 17
0.586255 1.311369 1.034697 25 31 58
0.882168 0.941470 1.054828 29 14 18
0.641113 1.239940 0.979426 13 21 46
0.743790 1.121583 1.220596 12 17 34
0.736783 1.126501 1.214631 16 17 37
0.819814 1.017952 1.021015 10 11 29
0.743790 1.121583 1.220596 12 17 34
0.743790 1.121583 1.220596 12 17 34
0.743790 1.121583 1.220596 12 17 34
0.743790 1.121583 1.220596 12 17 34
0.805352 1.034739 0.960458 6 8 19
0.743790 1.121583 1.220596 12 17 34
0.653012 1.233365 1.210684 22 26 53
0.743790 1.121583 1.220596 12 17 34
0.743790 1.121583 1.220596 12 17 34
0.640671 1.255273 1.304597 22 33 54
0.743790 1.121583 1.220596 12 17 34
0.692668 1.183007 1.184438 19 25 43
0.558015 1.351891 1.129526 18 22 49
0.941998 0.865690 1.120747 13 9 14
0.743790 1.121583 1.220596 12 17 34
0.701481 1.170069 1.150364 12 19 49
0.933220 0.874707 1.059624 21 13 11
0.704839 1.161662 1.070696 12 21 39
0.743790 1.121583 1.220596 12 17 34
0.627190 1.265647 1.284432 24 34 53
0.564031 1.345518 1.020587 28 33 65
0.743790 1.121583 1.220596 12 17 34
0.743790 1.121583 1.220596 12 17 34
0.743790 1.121583 1.220596 12 17 34
0.610852 1.279581 1.055483 14 26 61
0.743790 1.121583 1.220596 12 17 34
0.559415 1.389020 1.123629 19 15 27
0.743790 1.121583 1.220596 12 17 34
0.949833 0.851086 0.995722 22 16 19
0.743790 1.121583 1.220596 12 17 34
0.816170 1.023809 0.984758 9 7 22
0.743790 1.121583 1.220596 12 17 34
0.833882 1.004154 1.078391 11 5 14
0.743790 1.121583 1.220596 12 17 34
0.743790 1.121583 1.220596 12 17 34
0.988122 0.812415 1.127633 11 11 19
0.638537 1.244952 1.109708 18 29 50
0.776543 1.085044 0.945431 6 7 17
0.581648 1.315741 0.990744 19 28 62
0.743790 1.121583 1.220596 12 17 34
0.789745 1.056112 0.979333 6 8 20
0.743790 1.121583 1.220596 12 17 34
0.743790 1.121583 1.220596 12 17 34
0.743790 1.121583 1.220596 12 17 34
0.743790 1.121583 1.220596 12 17 34
0.891703 0.923118 1.090951 25 14 14
0.595328 1.305138 1.185809 13 28 55
0.830956 0.994564 0.958550 7 6 22
0.706158 1.166731 1.180271 17 22 45
0.743790 1.121583 1.220596 12 17 34
0.743790 1.121583 1.220596 12 17 34
0.743790 1.121583 1.220596 12 17 34
0.743790 1.121583 1.220596 12 17 34
0.743790 1.121583 1.220596 12 17 34
0.644980 1.239728 0.955359 11 19 48
0.743790 1.121583 1.220596 12 17 34
0.675581 1.203666 1.234122 17 25 54
0.743790 1.121583 1.220596 12 17 34
0.743790 1.121583 1.220596 12 17 34
0.604817 1.289141 1.252160 18 32 52
0.743790 1.121583 1.220596 12 17 34
0.743790 1.121583 1.220596 12 17 34
0.743790 1.121583 1.220596 12 17 34
0.743790 1.121583 1.220596 12 17 34
0.743790 1.121583 1.220596 12 17 34
0.794344 1.054791 1.179261 6 6 19
0.599980 1.298095 1.255437 21 35 53
0.898971 0.912300 0.994167 24 20 27
0.660515 1.218510 1.090697 18 27 52
0.757878 1.143478 0.935317 14 13 28
0.743790 1.121583 1.220596 12 17 34
0.743790 1.121583 1.220596 12 17 34
0.743790 1.121583 1.220596 12 17 34
0.743790 1.121583 1.220596 12 17 34
0.852644 0.982671 1.104873 26 11 14
0.743790 1.121583 1.220596 12 17 34
0.743790 1.121583 1.220596 12 17 34
0.651903 1.233636 1.235191 25 31 55
0.743790 1.121583 1.220596 12 17 34
0.743790 1.121583 1.220596 12 17 34
0.743790 1.121583 1.220596 12 17 34
0.743790 1.121583 1.220596 12 17 34
0.913729 0.902232 1.099912 22 12 17
0.740211 1.122775 0.950084 8 12 28
0.743790 1.121583 1.220596 12 17 34
0.675610 1.203200 1.206900 23 24 49
0.918207 0.901167 1.065844 24 14 14
0.743790 1.121583 1.220596 12 17 34
0.665791 1.215319 1.135480 20 25 48
0.737639 1.117193 0.968790 8 11 27
0.640843 1.239505 1.049540 15 26 52
0.743790 1.121583 1.220596 12 17 34
0.797642 1.082995 0.938895 8 10 14
0.578000 1.326451 1.210025 18 27 52
0.568097 1.396787 1.214552 109 107 97
0.743790 1.121583 1.220596 12 17 34
0.905145 0.905751 1.064791 25 16 14
0.743790 1.121583 1.220596 12 17 34
0.743790 1.121583 1.220596 12 17 34
0.754939 1.106244 1.205007 4 5 10
0.605413 1.285259 1.015012 12 29 54
0.743790 1.121583 1.220596 12 17 34
0.566478 1.390221 1.209422 35 48 33
0.743790 1.121583 1.220596 12 17 34
0.743790 1.121583 1.220596 12 17 34
0.670257 1.207867 1.104762 14 25 48
0.743790 1.121583 1.220596 12 17 34
0.743790 1.121583 1.220596 12 17 34
0.743790 1.121583 1.220596 12 17 34
0.563784 1.388945 1.228074 37 60 72
0.707982 1.167390 0.946762 7 10 33
0.743790 1.121583 1.220596 12 17 34
0.743790 1.121583 1.220596 12 17 34
0.894154 0.918703 1.024042 27 13 21
0.695934 1.178610 1.130580 16 20 47
0.743790 1.121583 1.220596 12 17 34
0.743790 1.121583 1.220596 12 17 34
0.688056 1.187529 1.034378 10 21 40
0.718443 1.146115 1.114497 15 19 41
0.951089 0.855297 1.070119 18 12 19
0.743790 1.121583 1.220596 12 17 34
0.576275 1.326386 1.170369 16 25 49
0.743790 1.121583 1.220596 12 17 34
0.743790 1.121583 1.220596 12 17 34
0.743790 1.121583 1.220596 12 17 34
0.743790 1.121583 1.220596 12 17 34
0.680366 1.198672 1.199693 21 26 47
0.743790 1.121583 1.220596 12 17 34
0.743790 1.121583 1.220596 12 17 34
0.872670 0.951786 1.115609 25 12 14
0.743790 1.121583 1.220596 12 17 34
0.743790 1.121583 1.220596 12 17 34
0.612067 1.275548 1.075150 23 35 52
0.609247 1.289762 1.154110 21 31 55
0.743790 1.121583 1.220596 12 17 34
0.753970 1.104662 1.224941 11 16 31
0.958437 0.836818 1.099700 12 9 15
0.743790 1.121583 1.220596 12 17 34
0.743790 1.121583 1.220596 12 17 34
0.743790 1.121583 1.220596 12 17 34
0.743790 1.121583 1.220596 12 17 34
0.774891 1.080857 1.124911 8 5 29
0.814297 1.024546 0.979803 8 7 22
0.743790 1.121583 1.220596 12 17 34
0.743790 1.121583 1.220596 12 17 34
0.637569 1.245045 0.985309 19 33 49
0.743790 1.121583 1.220596 12 17 34
0.743790 1.121583 1.220596 12 17 34
0.734572 1.132504 1.160128 8 16 37
0.760802 1.096256 1.114751 6 3 26
0.743790 1.121583 1.220596 12 17 34
0.607325 1.286224 1.209977 21 31 55
0.743790 1.121583 1.220596 12 17 34
0.909387 0.906677 1.180048 9 6 13
0.743790 1.121583 1.220596 12 17 34
0.743790 1.121583 1.220596 12 17 34
0.792726 1.054339 1.185334 7 8 19
0.743790 1.121583 1.220596 12 17 34
0.743790 1.121583 1.220596 12 17 34
0.697554 1.182914 1.240162 23 28 50
0.743790 1.121583 1.220596 12 17 34
0.743790 1.121583 1.220596 12 17 34
0.585856 1.315236 1.119016 26 33 54
0.743790 1.121583 1.220596 12 17 34
0.816380 1.018128 0.959508 6 8 14
0.743790 1.121583 1.220596 12 17 34
0.585496 1.315257 1.060532 18 34 56
0.611847 1.276117 1.000037 15 26 55
0.743790 1.121583 1.220596 12 17 34
0.837657 0.998100 1.125193 16 8 9
0.743790 1.121583 1.220596 12 17 34
0.743790 1.121583 1.220596 12 17 34
0.743790 1.121583 1.220596 12 17 34
0.743790 1.121583 1.220596 12 17 34
0.743790 1.121583 1.220596 12 17 34
0.743790 1.121583 1.220596 12 17 34
0.888289 0.929318 1.221146 7 7 16
0.591636 1.300212 1.029754 22 29 60
0.743790 1.121583 1.220596 12 17 34
0.743790 1.121583 1.220596 12 17 34
0.957589 0.844833 1.090298 15 12 18
0.743790 1.121583 1.220596 12 17 34
0.743790 1.121583 1.220596 12 17 34
0.699649 1.166066 0.973822 9 13 38
0.803812 1.043871 1.145418 6 7 18
0.743790 1.121583 1.220596 12 17 34
0.743790 1.121583 1.220596 12 17 34
0.681781 1.192541 1.119662 14 25 48
0.743790 1.121583 1.220596 12 17 34
0.743790 1.121583 1.220596 12 17 34
0.874914 0.943739 1.119052 25 11 17
0.743790 1.121583 1.220596 12 17 34
0.743790 1.121583 1.220596 12 17 34
0.704280 1.162512 0.964679 9 15 34
0.743790 1.121583 1.220596 12 17 34
0.560045 1.354013 1.061560 14 29 54
0.743790 1.121583 1.220596 12 17 34
0.743790 1.121583 1.220596 12 17 34
0.629947 1.264754 1.235091 21 30 54
0.743790 1.121583 1.220596 12 17 34
0.743790 1.121583 1.220596 12 17 34
0.683038 1.216371 0.940967 10 15 36
0.743790 1.121583 1.220596 12 17 34
0.743790 1.121583 1.220596 12 17 34
0.743790 1.121583 1.220596 12 17 34
0.743790 1.121583 1.220596 12 17 34
0.743790 1.121583 1.220596 12 17 34
0.743790 1.121583 1.220596 12 17 34
0.827012 1.004245 1.010680 8 8 30
0.743790 1.121583 1.220596 12 17 34
0.872375 0.953383 1.129842 22 8 12
0.743790 1.121583 1.220596 12 17 34
0.743790 1.121583 1.220596 12 17 34
0.743790 1.121583 1.220596 12 17 34
0.743790 1.121583 1.220596 12 17 34
0.743790 1.121583 1.220596 12 17 34
0.927181 0.890875 1.125146 17 9 15
0.688982 1.181640 1.055200 7 19 45
0.743790 1.121583 1.220596 12 17 34
0.743790 1.121583 1.220596 12 17 34
0.743790 1.121583 1.220596 12 17 34
0.743790 1.121583 1.220596 12 17 34
0.743790 1.121583 1.220596 12 17 34
0.743790 1.121583 1.220596 12 17 34
0.743790 1.121583 1.220596 12 17 34
0.743790 1.121583 1.220596 12 17 34
0.698583 1.177665 1.239516 21 25 50
0.592840 1.301045 1.024434 20 28 58
0.685118 1.198091 1.245516 21 26 45
0.743790 1.121583 1.220596 12 17 34
0.743790 1.121583 1.220596 12 17 34
0.743790 1.121583 1.220596 12 17 34
0.702297 1.162734 1.054650 7 14 43
0.802789 1.069473 0.940165 7 10 11
0.816768 1.029979 1.150248 10 4 13
0.743790 1.121583 1.220596 12 17 34
0.624864 1.275489 1.300940 28 35 52
0.743790 1.121583 1.220596 12 17 34
0.672237 1.203624 0.979035 9 18 43
0.743790 1.121583 1.220596 12 17 34
0.777231 1.070990 0.994938 7 8 17
0.623033 1.264586 1.120819 19 30 54
0.577539 1.325863 1.195351 21 27 48
0.743790 1.121583 1.220596 12 17 34
0.656032 1.224228 0.985281 12 20 48
0.743790 1.121583 1.220596 12 17 34
0.743790 1.121583 1.220596 12 17 34
0.743790 1.121583 1.220596 12 17 34
0.743790 1.121583 1.220596 12 17 34
0.630216 1.254390 1.005240 13 25 54
0.901372 0.915932 1.189734 10 7 9
0.778636 1.075517 1.214657 6 6 18
0.743790 1.121583 1.220596 12 17 34
0.742163 1.121130 1.189684 14 17 32
0.743790 1.121583 1.220596 12 17 34
0.773451 1.074947 1.005140 7 9 17
0.743790 1.121583 1.220596 12 17 34
0.924981 0.884073 1.019605 21 15 21
0.789646 1.114148 0.921278 9 23 44
0.813070 1.034600 1.055423 7 6 25
0.743790 1.121583 1.220596 12 17 34
0.894934 0.926603 1.055477 29 17 17
0.743790 1.121583 1.220596 12 17 34
0.556295 1.360632 1.161134 6 12 17
0.743790 1.121583 1.220596 12 17 34
0.820984 1.013773 0.963902 6 9 19
0.743790 1.121583 1.220596 12 17 34
0.600725 1.291039 1.069685 18 28 64
0.832495 1.003780 1.130457 13 5 12
0.788527 1.059396 1.075530 7 8 33
0.743790 1.121583 1.220596 12 17 34
0.644503 1.240452 1.125035 19 28 52
0.692287 1.178519 1.060466 9 16 46
0.943028 0.859557 1.099736 18 10 13
0.743790 1.121583 1.220596 12 17 34
0.743790 1.121583 1.220596 12 17 34
0.743790 1.121583 1.220596 12 17 34
0.743790 1.121583 1.220596 12 17 34
0.743790 1.121583 1.220596 12 17 34
0.743790 1.121583 1.220596 12 17 34
0.718443 1.147594 1.104298 14 16 41
0.564603 1.347899 1.161393 15 26 43
0.743790 1.121583 1.220596 12 17 34
0.755719 1.100956 1.074837 6 4 24
0.743790 1.121583 1.220596 12 17 34
0.880032 0.941341 1.009324 21 14 25
0.662413 1.218778 1.129649 18 24 56
0.743790 1.121583 1.220596 12 17 34
0.743790 1.121583 1.220596 12 17 34
0.880065 0.950754 1.220006 7 8 17
0.624028 1.270108 1.184628 18 29 56
0.743790 1.121583 1.220596 12 17 34
0.743790 1.121583 1.220596 12 17 34
0.743790 1.121583 1.220596 12 17 34
0.743790 1.121583 1.220596 12 17 34
0.743790 1.121583 1.220596 12 17 34
0.743790 1.121583 1.220596 12 17 34
0.743790 1.121583 1.220596 12 17 34
0.743790 1.121583 1.220596 12 17 34
0.856731 0.977273 1.119614 23 7 18
0.722532 1.146956 1.175248 11 17 46
0.879456 0.945652 1.001884 16 16 23
0.743790 1.121583 1.220596 12 17 34
0.743790 1.121583 1.220596 12 17 34
0.623792 1.254895 1.056198 18 28 50
0.743790 1.121583 1.220596 12 17 34
0.743790 1.121583 1.220596 12 17 34
0.839050 0.997763 1.024904 11 9 23
0.881230 0.944652 1.007720 16 15 27
0.743790 1.121583 1.220596 12 17 34
0.720824 1.141697 1.030366 11 13 40
0.643034 1.248675 1.290792 23 33 50
0.606718 1.284309 1.100263 16 29 60
0.743790 1.121583 1.220596 12 17 34
0.743790 1.121583 1.220596 12 17 34
0.650044 1.239572 1.215735 21 28 48
0.779074 1.074690 1.240426 5 5 8
0.743790 1.121583 1.220596 12 17 34
0.743790 1.121583 1.220596 12 17 34
0.789174 1.051929 0.990106 5 8 27
0.743790 1.121583 1.220596 12 17 34
0.743885 1.112710 1.020017 8 9 18
0.743790 1.121583 1.220596 12 17 34
0.743790 1.121583 1.220596 12 17 34
0.648673 1.239648 1.255636 21 28 55
0.691782 1.177450 1.050159 7 17 42
0.743790 1.121583 1.220596 12 17 34
0.780609 1.071238 1.144689 4 5 30
0.743790 1.121583 1.220596 12 17 34
0.738266 1.116369 0.965363 8 12 24
0.743790 1.121583 1.220596 12 17 34
0.748491 1.115270 1.135286 6 8 21
0.743790 1.121583 1.220596 12 17 34
0.731771 1.127015 1.000065 6 12 31
0.743790 1.121583 1.220596 12 17 34
0.760745 1.101888 1.251111 11 15 32
0.743790 1.121583 1.220596 12 17 34
0.743790 1.121583 1.220596 12 17 34
0.743790 1.121583 1.220596 12 17 34
0.662804 1.214292 1.074977 13 24 49
0.635182 1.249834 1.054087 20 29 51
0.706669 1.152072 0.963653 5 9 35
0.743790 1.121583 1.220596 12 17 34
0.908010 0.911248 1.135006 20 9 14
0.767425 1.090106 1.124533 5 7 29
0.864145 0.959929 1.118756 24 12 15
0.743790 1.121583 1.220596 12 17 34
0.743790 1.121583 1.220596 12 17 34
0.743790 1.121583 1.220596 12 17 34
0.611950 1.284432 1.309707 25 34 52
0.743790 1.121583 1.220596 12 17 34
0.743790 1.121583 1.220596 12 17 34
0.888721 0.930411 1.045221 30 16 23
0.843304 0.985557 1.096288 41 12 23
0.743790 1.121583 1.220596 12 17 34
0.776837 1.072171 1.161504 4 7 27
0.743790 1.121583 1.220596 12 17 34
0.665014 1.228028 1.214470 21 27 54
0.743790 1.121583 1.220596 12 17 34
0.743790 1.121583 1.220596 12 17 34
0.746009 1.111470 1.004850 9 11 29
0.679338 1.208372 1.265167 24 30 47
0.743790 1.121583 1.220596 12 17 34
0.743790 1.121583 1.220596 12 17 34
0.743790 1.121583 1.220596 12 17 34
0.684750 1.192719 1.245305 20 29 49
0.743790 1.121583 1.220596 12 17 34
0.622721 1.273636 1.115500 19 30 56
0.743790 1.121583 1.220596 12 17 34
0.800222 1.041033 1.118567 6 7 18
0.651594 1.233531 1.134716 17 28 54
0.625379 1.269720 1.209913 21 30 57
0.743790 1.121583 1.220596 12 17 34
0.821614 1.024799 1.105493 8 8 13
0.925639 0.886048 1.120283 17 10 16
0.743790 1.121583 1.220596 12 17 34
0.576912 1.326451 1.255560 20 27 47
0.743790 1.121583 1.220596 12 17 34
0.743790 1.121583 1.220596 12 17 34
0.858020 0.966823 1.030534 16 9 20
0.743790 1.121583 1.220596 12 17 34
0.632376 1.249835 1.064568 17 24 55
0.743790 1.121583 1.220596 12 17 34
0.822923 1.018659 1.149973 10 4 12
0.743790 1.121583 1.220596 12 17 34
0.743790 1.121583 1.220596 12 17 34
0.743790 1.121583 1.220596 12 17 34
0.665785 1.209743 1.020696 13 22 41
0.743790 1.121583 1.220596 12 17 34
0.936535 0.879359 1.096006 18 10 18
0.927730 0.880396 1.121303 17 8 15
0.561760 1.376833 1.155489 7 8 13
0.743790 1.121583 1.220596 12 17 34
0.670104 1.217857 0.945344 7 16 40
0.743790 1.121583 1.220596 12 17 34
0.697026 1.176963 1.175767 15 22 45
0.743790 1.121583 1.220596 12 17 34
0.743790 1.121583 1.220596 12 17 34
0.563394 1.386524 1.076954 15 21 51
0.743790 1.121583 1.220596 12 17 34
0.743790 1.121583 1.220596 12 17 34
0.743790 1.121583 1.220596 12 17 34
0.578589 1.329812 1.199992 21 26 47
0.743790 1.121583 1.220596 12 17 34
0.743790 1.121583 1.220596 12 17 34
0.743790 1.121583 1.220596 12 17 34
0.743790 1.121583 1.220596 12 17 34
0.679946 1.202304 1.245540 21 28 48
0.576046 1.342082 1.259919 17 23 42
0.566753 1.340929 1.119587 17 29 53
0.743790 1.121583 1.220596 12 17 34
0.743790 1.121583 1.220596 12 17 34
0.743790 1.121583 1.220596 12 17 34
0.743790 1.121583 1.220596 12 17 34
0.743790 1.121583 1.220596 12 17 34
0.743790 1.121583 1.220596 12 17 34
0.802123 1.040351 1.005884 9 10 30
0.743790 1.121583 1.220596 12 17 34
0.554093 1.357547 1.035921 14 9 38
0.743790 1.121583 1.220596 12 17 34
0.762090 1.098990 1.199956 6 6 19
0.714136 1.156217 1.060524 8 16 41
0.812675 1.028991 1.114783 8 5 11
0.743790 1.121583 1.220596 12 17 34
0.786265 1.073748 0.941072 8 9 13
0.743790 1.121583 1.220596 12 17 34
0.743790 1.121583 1.220596 12 17 34
0.778289 1.065609 0.995246 7 8 19
0.578076 1.318181 1.101303 27 36 57
0.834651 1.003925 1.125076 14 5 9
0.743790 1.121583 1.220596 12 17 34
0.743790 1.121583 1.220596 12 17 34
0.743790 1.121583 1.220596 12 17 34
0.743790 1.121583 1.220596 12 17 34
0.821102 1.016139 1.026674 10 10 31
0.743790 1.121583 1.220596 12 17 34
0.811988 1.034061 1.145016 6 6 19
0.743790 1.121583 1.220596 12 17 34
0.599611 1.295241 1.115362 19 30 57
0.743790 1.121583 1.220596 12 17 34
0.607621 1.286104 1.251778 21 31 55
0.920123 0.889942 1.054553 23 15 13
0.743790 1.121583 1.220596 12 17 34
0.792618 1.040510 0.970813 8 8 17
0.743790 1.121583 1.220596 12 17 34
0.743790 1.121583 1.220596 12 17 34
0.578711 1.315547 1.040864 19 30 58
0.743790 1.121583 1.220596 12 17 34
0.604680 1.288738 1.000830 11 26 57
0.624525 1.270870 1.270307 21 33 54
0.914155 0.895026 1.044752 25 14 15
0.743790 1.121583 1.220596 12 17 34
0.743790 1.121583 1.220596 12 17 34
0.599617 1.294675 1.125498 18 29 60
0.615528 1.271043 1.059703 22 29 54
0.750474 1.133671 0.943864 6 10 28
0.644832 1.249059 1.284455 25 35 52
1.006809 0.783543 1.130212 11 10 19
0.902671 0.915554 1.065166 27 16 14
0.813916 1.028345 1.019424 10 12 28
0.833889 1.007598 1.104294 27 12 12
0.743790 1.121583 1.220596 12 17 34
0.637928 1.249690 1.039798 12 24 52
0.743790 1.121583 1.220596 12 17 34
0.734273 1.131579 1.199179 10 20 35
0.743790 1.121583 1.220596 12 17 34
0.884721 0.941752 1.204803 9 6 12
0.809657 1.027086 0.969520 6 6 20
0.892296 0.921613 0.975289 17 20 34
0.917687 0.895985 1.005281 26 18 18
0.743790 1.121583 1.220596 12 17 34
0.743790 1.121583 1.220596 12 17 34
0.743790 1.121583 1.220596 12 17 34
0.709551 1.156603 1.009795 7 13 41
0.677460 1.188576 0.964467 6 14 38
0.743790 1.121583 1.220596 12 17 34
0.743790 1.121583 1.220596 12 17 34
0.743790 1.121583 1.220596 12 17 34
0.809895 1.033807 0.950502 7 8 17
0.737777 1.126272 0.950611 9 13 27
0.743790 1.121583 1.220596 12 17 34
0.878275 0.947259 1.148959 22 8 11
0.934581 0.874498 1.070141 21 12 13
0.742741 1.112518 1.040026 3 5 16
0.914563 0.901054 1.039756 25 16 21
0.554821 1.358562 1.089410 14 18 35
0.743790 1.121583 1.220596 12 17 34
0.787464 1.064924 0.950281 5 5 9
0.743790 1.121583 1.220596 12 17 34
0.623726 1.265476 1.080229 24 35 45
0.743790 1.121583 1.220596 12 17 34
0.617095 1.274913 1.080497 26 31 52
0.866313 0.955823 0.995363 15 13 26
0.743790 1.121583 1.220596 12 17 34
0.743790 1.121583 1.220596 12 17 34
0.743790 1.121583 1.220596 12 17 34
0.743790 1.121583 1.220596 12 17 34
0.606598 1.276190 0.991657 15 28 56
0.868867 0.956849 1.089588 27 15 14
0.743790 1.121583 1.220596 12 17 34
0.592718 1.300944 1.066400 22 35 62
0.944722 0.854650 1.119296 14 10 10
0.743790 1.121583 1.220596 12 17 34
0.743790 1.121583 1.220596 12 17 34
0.743790 1.121583 1.220596 12 17 34
0.558655 1.347070 1.049875 21 34 65
0.743790 1.121583 1.220596 12 17 34
0.743790 1.121583 1.220596 12 17 34
0.743790 1.121583 1.220596 12 17 34
0.794572 1.057601 1.038896 9 11 35
0.743790 1.121583 1.220596 12 17 34
0.873505 0.953034 1.146383 22 7 13
0.743790 1.121583 1.220596 12 17 34
0.943083 0.859671 0.989998 23 17 22
0.743790 1.121583 1.220596 12 17 34
0.628441 1.267032 1.247042 23 34 49
0.743790 1.121583 1.220596 12 17 34
0.743790 1.121583 1.220596 12 17 34
0.743790 1.121583 1.220596 12 17 34
0.743790 1.121583 1.220596 12 17 34
0.743790 1.121583 1.220596 12 17 34
0.743790 1.121583 1.220596 12 17 34
0.743790 1.121583 1.220596 12 17 34
0.656766 1.231751 1.195370 19 29 49
0.743790 1.121583 1.220596 12 17 34
0.714488 1.152218 1.039777 13 16 40
0.694222 1.187085 1.265187 19 28 50
0.743790 1.121583 1.220596 12 17 34
0.743790 1.121583 1.220596 12 17 34
0.743790 1.121583 1.220596 12 17 34
0.706984 1.168296 1.284429 18 25 50
0.743790 1.121583 1.220596 12 17 34
0.927516 0.878998 0.951853 23 26 38
0.848836 0.982197 1.124476 21 8 11
0.722348 1.142704 1.010979 7 12 36
0.743790 1.121583 1.220596 12 17 34
0.743790 1.121583 1.220596 12 17 34
0.743790 1.121583 1.220596 12 17 34
0.966000 0.834745 1.099954 14 12 18
0.666465 1.218851 1.210690 29 34 46
0.569268 1.346802 1.124989 15 26 54
0.743790 1.121583 1.220596 12 17 34
0.815187 1.019872 1.038669 8 7 27
0.743790 1.121583 1.220596 12 17 34
0.743790 1.121583 1.220596 12 17 34
0.678231 1.203409 1.195420 21 28 45
0.762744 1.096159 1.140575 4 5 28
0.819518 1.023715 1.149951 9 4 11
0.743790 1.121583 1.220596 12 17 34
0.743790 1.121583 1.220596 12 17 34
0.656927 1.220092 1.015613 11 23 48
0.743790 1.121583 1.220596 12 17 34
0.743790 1.121583 1.220596 12 17 34
0.578955 1.316956 1.129065 22 30 53
0.727038 1.136463 1.029626 8 13 38
0.743790 1.121583 1.220596 12 17 34
0.712123 1.157810 1.130169 8 19 43
0.743790 1.121583 1.220596 12 17 34
0.800912 1.044825 0.950370 6 8 17
0.676913 1.205741 0.946948 7 17 40
0.603051 1.294480 1.096808 23 32 57
0.907159 0.907254 1.040597 27 16 22
0.743790 1.121583 1.220596 12 17 34
0.907048 0.902738 1.072152 24 14 13
0.595531 1.305991 1.215351 22 30 48
0.743790 1.121583 1.220596 12 17 34
0.743790 1.121583 1.220596 12 17 34
0.673848 1.209230 1.155235 18 25 53
0.743790 1.121583 1.220596 12 17 34
0.753785 1.141279 0.934822 14 14 28
0.716002 1.152066 1.084998 11 14 43
0.681306 1.202820 1.225539 18 28 52
0.743790 1.121583 1.220596 12 17 34
0.688856 1.187376 1.228872 20 29 46
0.581298 1.321232 1.155207 21 30 50
0.744731 1.115400 1.014861 6 11 30
0.743790 1.121583 1.220596 12 17 34
0.920638 0.896019 1.099814 23 13 18
0.843012 0.991678 0.999212 12 10 24
0.743790 1.121583 1.220596 12 17 34
0.914417 0.904915 1.038523 25 18 22
0.743790 1.121583 1.220596 12 17 34
0.917680 0.901794 1.169843 7 6 13
0.766137 1.090995 1.229424 10 14 30
0.743790 1.121583 1.220596 12 17 34
0.910423 0.910080 1.146142 16 9 13
0.626064 1.253551 0.984712 14 25 51
0.811896 1.032030 1.069442 6 8 18
0.743790 1.121583 1.220596 12 17 34
0.925340 0.891075 1.134678 15 8 14
0.743790 1.121583 1.220596 12 17 34
0.811679 1.034404 1.189359 5 5 20
0.810777 1.034710 1.150513 6 6 21
0.743790 1.121583 1.220596 12 17 34
0.743790 1.121583 1.220596 12 17 34
0.743790 1.121583 1.220596 12 17 34
0.754223 1.100943 0.991193 8 12 18
0.743482 1.115232 1.075069 2 3 19
0.743790 1.121583 1.220596 12 17 34
0.687660 1.193234 1.285244 20 30 48
0.743790 1.121583 1.220596 12 17 34
0.743790 1.121583 1.220596 12 17 34
0.810901 1.034312 1.179493 7 6 19
0.868593 0.959160 1.139110 22 9 15
0.743790 1.121583 1.220596 12 17 34
0.578568 1.313860 1.060907 19 36 57
0.667937 1.214302 1.145670 19 26 48
0.946118 0.860402 1.059845 19 13 13
0.802249 1.039589 1.056053 9 8 27
0.771874 1.077788 1.034058 5 6 30
0.743790 1.121583 1.220596 12 17 34
0.743790 1.121583 1.220596 12 17 34
0.743790 1.121583 1.220596 12 17 34
0.589988 1.306271 0.993990 14 28 53
0.597587 1.305945 1.165035 19 31 53
0.743790 1.121583 1.220596 12 17 34
0.743790 1.121583 1.220596 12 17 34
0.670920 1.208146 1.115204 16 25 49
0.743790 1.121583 1.220596 12 17 34
0.743790 1.121583 1.220596 12 17 34
0.717732 1.149691 1.079194 18 26 30
0.796993 1.115266 0.902602 6 7 15
0.743790 1.121583 1.220596 12 17 34
0.743790 1.121583 1.220596 12 17 34
0.743790 1.121583 1.220596 12 17 34
0.559916 1.365379 1.190907 8 11 23
0.925766 0.886254 1.110778 18 10 16
0.714276 1.152883 1.035140 8 11 40
0.743790 1.121583 1.220596 12 17 34
0.686876 1.193528 1.235264 19 29 43
0.743790 1.121583 1.220596 12 17 34
0.743790 1.121583 1.220596 12 17 34
0.743790 1.121583 1.220596 12 17 34
0.871117 0.951244 1.219656 7 9 17
0.898219 0.920684 1.069880 27 14 15
0.743790 1.121583 1.220596 12 17 34
0.864172 0.962378 1.045009 23 12 13
0.743790 1.121583 1.220596 12 17 34
0.743790 1.121583 1.220596 12 17 34
0.743790 1.121583 1.220596 12 17 34
0.906467 0.906861 1.119802 23 10 17
0.743790 1.121583 1.220596 12 17 34
0.743790 1.121583 1.220596 12 17 34
0.966414 0.833763 1.095111 12 10 15
0.743790 1.121583 1.220596 12 17 34
0.733428 1.122346 0.963921 9 14 29
0.564395 1.341747 1.075296 27 35 61
0.936640 0.869462 1.010876 22 14 21
0.743790 1.121583 1.220596 12 17 34
0.743790 1.121583 1.220596 12 17 34
0.703504 1.171992 1.195218 20 23 46
0.916232 0.903998 1.144242 16 8 14
0.743790 1.121583 1.220596 12 17 34
0.743790 1.121583 1.220596 12 17 34
0.928968 0.880623 1.025252 24 17 20
0.743790 1.121583 1.220596 12 17 34
0.743790 1.121583 1.220596 12 17 34
0.669950 1.213685 1.190352 20 25 53
0.743790 1.121583 1.220596 12 17 34
0.743790 1.121583 1.220596 12 17 34
0.623693 1.264683 1.094673 19 32 54
0.743790 1.121583 1.220596 12 17 34
0.743790 1.121583 1.220596 12 17 34
0.743790 1.121583 1.220596 12 17 34
0.743790 1.121583 1.220596 12 17 34
0.743790 1.121583 1.220596 12 17 34
0.743790 1.121583 1.220596 12 17 34
0.847142 0.988584 1.040394 9 7 18
0.743790 1.121583 1.220596 12 17 34
0.743790 1.121583 1.220596 12 17 34
0.897744 0.926122 1.149591 18 7 14
0.776884 1.076335 1.219988 5 5 7
0.743790 1.121583 1.220596 12 17 34
0.743790 1.121583 1.220596 12 17 34
0.743790 1.121583 1.220596 12 17 34
0.887681 0.940915 1.224029 6 7 16
0.802226 1.039104 1.045843 9 10 29
0.582044 1.315684 1.054230 18 32 60
0.743790 1.121583 1.220596 12 17 34
0.743790 1.121583 1.220596 12 17 34
0.756468 1.138852 0.938940 10 9 26
0.583968 1.313831 1.050549 24 33 60
0.743790 1.121583 1.220596 12 17 34
0.714353 1.157051 1.225407 14 23 46
0.743790 1.121583 1.220596 12 17 34
0.743790 1.121583 1.220596 12 17 34
0.897542 0.922407 1.161483 14 6 12
0.743790 1.121583 1.220596 12 17 34
0.743790 1.121583 1.220596 12 17 34
0.743790 1.121583 1.220596 12 17 34
0.613455 1.285671 1.259533 23 34 53
0.552385 1.371706 1.104652 9 16 40
0.784625 1.059579 1.041348 10 11 35
0.743790 1.121583 1.220596 12 17 34
0.743790 1.121583 1.220596 12 17 34
0.743790 1.121583 1.220596 12 17 34
0.703975 1.162310 1.064991 10 20 40
0.743790 1.121583 1.220596 12 17 34
0.629434 1.265271 1.290345 22 35 53
0.743790 1.121583 1.220596 12 17 34
0.743790 1.121583 1.220596 12 17 34
0.682252 1.187388 0.989455 9 16 40
0.743790 1.121583 1.220596 12 17 34
0.743790 1.121583 1.220596 12 17 34
0.743790 1.121583 1.220596 12 17 34
0.743790 1.121583 1.220596 12 17 34
0.743790 1.121583 1.220596 12 17 34
0.686751 1.183513 1.009422 5 18 39
0.737589 1.121166 1.035214 9 14 28
0.743790 1.121583 1.220596 12 17 34
0.563536 1.394404 1.173211 78 88 81
0.743790 1.121583 1.220596 12 17 34
0.743790 1.121583 1.220596 12 17 34
0.675703 1.192946 0.959738 8 17 41
0.763693 1.090384 1.104555 4 7 29
0.612656 1.286019 0.945005 8 20 53
0.729392 1.136130 1.019669 9 14 33
0.743790 1.121583 1.220596 12 17 34
0.916856 0.902997 1.054964 23 13 19
0.644420 1.237336 1.004061 7 15 51
0.743790 1.121583 1.220596 12 17 34
0.861875 0.970956 1.054196 23 13 14
0.722938 1.136956 0.964829 8 12 30
0.769200 1.077183 1.075282 5 7 33
0.828604 1.013727 1.139632 10 5 12
0.743790 1.121583 1.220596 12 17 34
0.743790 1.121583 1.220596 12 17 34
0.743790 1.121583 1.220596 12 17 34
0.566171 1.350267 1.117805 15 25 52
0.743790 1.121583 1.220596 12 17 34
0.833796 0.995430 1.039337 10 7 19
0.587526 1.315031 1.220666 24 30 51
0.743790 1.121583 1.220596 12 17 34
0.698203 1.187888 1.287207 20 29 50
0.743790 1.121583 1.220596 12 17 34
0.743790 1.121583 1.220596 12 17 34
0.669425 1.204805 0.995398 8 18 42
0.743790 1.121583 1.220596 12 17 34
0.743790 1.121583 1.220596 12 17 34
0.743790 1.121583 1.220596 12 17 34
0.676330 1.203369 1.124018 15 27 49
0.634278 1.264830 1.209676 21 30 55
0.743790 1.121583 1.220596 12 17 34
0.743790 1.121583 1.220596 12 17 34
0.743790 1.121583 1.220596 12 17 34
0.586395 1.317652 1.216016 19 27 49
0.675576 1.200003 0.984684 8 18 43